<svg viewBox="0 0 55 55" width="100%">
    <path d="M55 27.474A27.435 27.435 0 0129.878 54.86a13.125 13.125 0 01-2.339.14 27.5 27.5 0 1127.462-27.526z"
        fill="#fff" />
    <path
        d="M28.728 19.553a3.019 3.019 0 012.33-.8 13.369 13.369 0 013.519.481l1-5.4a19.041 19.041 0 00-6.383-.925 10.575 10.575 0 00-5.32 1.129 6.018 6.018 0 00-2.858 2.943 13.892 13.892 0 00-.8 5.44v2.114h-4.264v6.184h4.264v19.42a25.767 25.767 0 005.584.589 12.3 12.3 0 002.192-.131V30.722h5.65v-6.187h-5.65v-1.994c.003-1.522.207-2.459.736-2.988z"
        fill="#1e2233" /></svg>