<svg xmlns="http://www.w3.org/2000/svg" viewBox="0 0 94.538 94.538" width="100%">
  <g transform="translate(-62.21 -450.829)">
    <circle data-name="Elipse 15" cx="47.269" cy="47.269" r="47.269" transform="translate(62.21 450.829)"
      fill="#e8eef1" />
    <g data-name="Grupo 284">
      <g data-name="Grupo 278">
        <g data-name="Grupo 261">
          <path data-name="Trazado 244"
            d="M87.118 538.199l-6.227-.109a2.443 2.443 0 01-2.4-2.483l-5.035-18.234a2.443 2.443 0 012.487-2.4l13.565 4.349a2.443 2.443 0 012.4 2.484l-2.3 13.993a2.443 2.443 0 01-2.49 2.4z"
            fill="#ea7a95" />
        </g>
        <g data-name="Grupo 262">
          <path data-name="Trazado 245"
            d="M130.084 538.951l6.227.109a2.443 2.443 0 002.487-2.4l5.668-18.047a2.443 2.443 0 00-2.4-2.483l-13.709 3.876a2.443 2.443 0 00-2.487 2.4l1.813 14.065a2.443 2.443 0 002.401 2.48z"
            fill="#ea7a95" />
        </g>
        <g data-name="Grupo 263">
          <path data-name="Trazado 246"
            d="M113.212 460.253l-.114 6.5-6.017-.105.114-6.5c-25.149.859-38.487 18.208-38.839 38.309-.365 20.889 17.77 38.144 40.505 38.542s41.462-16.214 41.827-37.1c.35-20.105-12.35-37.91-37.476-39.646z"
            fill="#ed8fa3" />
        </g>
        <g data-name="Grupo 266">
          <g data-name="Grupo 264">
            <path data-name="Trazado 247"
              d="M75.152 455.622a.415.415 0 00-.393.183c-.085.13-8.405 13.119 1.325 26.717a.413.413 0 00.535.12l18.93-10.537a.411.411 0 00.178-.521c-.061-.141-6.284-14.262-20.575-15.962z"
              fill="#ed8fa3" />
          </g>
          <g data-name="Grupo 265">
            <path data-name="Trazado 248"
              d="M143.873 457.013a.419.419 0 00-.386-.2c-14.342 1.2-21.055 15.093-21.121 15.233a.412.412 0 00.16.527l18.551 11.192a.413.413 0 00.539-.1c10.198-13.247 2.337-26.519 2.257-26.652z"
              fill="#ed8fa3" />
          </g>
        </g>
        <g data-name="Grupo 269">
          <g data-name="Grupo 267">
            <ellipse data-name="Elipse 16" cx="2.686" cy="2.69" rx="2.686" ry="2.69"
              transform="rotate(-89.03 296.752 195.03)" fill="#2e2d30" />
          </g>
          <g data-name="Grupo 268">
            <path data-name="Trazado 249" d="M117.402 486.141a2.69 2.69 0 112.642 2.733 2.688 2.688 0 01-2.642-2.733z"
              fill="#2e2d30" />
          </g>
        </g>
        <g data-name="Grupo 270">
          <ellipse data-name="Elipse 17" cx="12.05" cy="16.138" rx="12.05" ry="16.138"
            transform="rotate(-88.999 309.17 210.718)" fill="#ea7a95" />
        </g>
        <g data-name="Grupo 272">
          <g data-name="Grupo 271">
            <path data-name="Trazado 250"
              d="M103.834 467.863l.069-3.96c-18.128 1.642-32.373 14.929-32.66 31.331a29.572 29.572 0 007.253 19.723 29.035 29.035 0 01-4.588-16.1c.272-15.571 13.119-28.332 29.926-30.994z"
              fill="#efa2b9" />
          </g>
        </g>
        <g data-name="Grupo 273">
          <path data-name="Trazado 251"
            d="M77.9 523.314a42.67 42.67 0 0030.961 13.683c22.736.4 41.462-16.214 41.827-37.1a43.074 43.074 0 00-1.659-12.791C133.448 548.263 77.9 523.314 77.9 523.314z"
            fill="#eb8299" />
        </g>
        <g data-name="Grupo 274">
          <path data-name="Trazado 252"
            d="M125.41 502.825c-7.552 11.909-20.518 10.972-27.1 10.211a19.362 19.362 0 0010.909 3.405c8.912.156 16.23-5.112 16.347-11.766a9.14 9.14 0 00-.156-1.85z"
            fill="#e97388" />
        </g>
        <g data-name="Grupo 275">
          <path data-name="Trazado 253" d="M76.191 457.613s-3.668 3.693-3.6 13.248c0 0 1.36-10.056 6.443-12.682z"
            fill="#efa2b9" />
        </g>
        <g data-name="Grupo 276">
          <path data-name="Trazado 254"
            d="M94.477 503.485a12.365 12.365 0 0110.085-9.128 25.392 25.392 0 00-10.085 9.128z" fill="#ed8fa3" />
        </g>
        <g data-name="Grupo 277">
          <path data-name="Trazado 255"
            d="M128.567 538.387a2.433 2.433 0 001.517.563l6.227.109a2.443 2.443 0 002.487-2.4l2.012-6.405c-4.755 5.316-9.364 7.353-12.243 8.133z"
            fill="#e97388" />
        </g>
      </g>
      <g data-name="Grupo 283">
        <g data-name="Grupo 280">
          <g data-name="Grupo 279">
            <path data-name="Trazado 256"
              d="M104.742 503.664c-.024 1.367-.7 2.464-1.514 2.449s-1.451-1.134-1.427-2.5.7-2.464 1.514-2.449 1.451 1.134 1.427 2.5z"
              fill="#413f43" />
          </g>
        </g>
        <g data-name="Grupo 282">
          <g data-name="Grupo 281">
            <path data-name="Trazado 257"
              d="M117.077 503.882c-.024 1.367-.7 2.464-1.513 2.449s-1.451-1.134-1.427-2.5.7-2.463 1.514-2.449 1.454 1.133 1.426 2.5z"
              fill="#413f43" />
          </g>
        </g>
      </g>
    </g>
  </g>
</svg>