<svg viewBox="0 0 55 55">
    <path d="M55 27.507A27.5 27.5 0 1127.494 0 27.5 27.5 0 0155 27.507z" fill="#fff" />
    <path
        d="M37.732 13.624h-20.45c-2.434 0-3.693 1.271-3.693 3.717v20.4c0 2.349 1.3 3.643 3.572 3.643h20.571a3.313 3.313 0 003.68-3.68V17.257c0-2.362-1.306-3.633-3.68-3.633zm-2.254 3.129c2.757 0 2.757 0 2.757 2.758 0 2.7 0 2.7-2.709 2.7-2.733 0-2.733 0-2.733-2.732s0-2.726 2.689-2.726zm-7.96 5.359a5.383 5.383 0 11-5.419 5.322 5.5 5.5 0 015.42-5.322zm10.717 14.459c-.023 1.293-.36 1.665-1.653 1.665H18.408c-1.271 0-1.631-.372-1.631-1.665 0-3.333.012-6.739-.048-10.118 0-.96.264-1.176 1.15-1.139 1.271.083 1.3.035 1.152 1.271a8.517 8.517 0 1016.831-.659c-.1-.48.023-.576.455-.576 1.918-.144 1.918-.179 1.918 1.811z"
        fill="#1e2233" fill-rule="evenodd" /></svg>