<svg xmlns="http://www.w3.org/2000/svg" viewBox="0 0 189.4 51.627" width="100%">
    <defs>
        <clipPath id="prefix__a">
            <path
                d="M248.2 650.743c2.616 1.51 5.3 2.894 7.9 4.43a5.544 5.544 0 013.651 6.324c.029 3.02-.115 6.038-.115 9.059s.144 6.038.115 9.059a5.545 5.545 0 01-3.651 6.324c-2.6 1.535-5.287 2.92-7.9 4.43s-5.157 3.144-7.787 4.629a5.544 5.544 0 01-7.3 0c-2.63-1.485-5.172-3.119-7.788-4.629s-5.3-2.894-7.9-4.43a5.544 5.544 0 01-3.651-6.324c-.029-3.021.115-6.039.115-9.059s-.144-6.038-.115-9.059a5.544 5.544 0 013.651-6.324c2.6-1.535 5.287-2.92 7.9-4.43s5.157-3.144 7.788-4.629a5.544 5.544 0 017.3 0c2.633 1.486 5.174 3.119 7.787 4.629z"
                transform="translate(-213.768 -644.742)" fill="none" clip-rule="evenodd" />
        </clipPath>
        <clipPath id="prefix__c">
            <path
                d="M252.774 660.013c-2.606-1.5-5.155-3.143-7.767-4.617a8.246 8.246 0 00-2.422-1.049 8.243 8.243 0 00-2.422 1.049c-2.612 1.475-5.161 3.113-7.767 4.617s-5.3 2.893-7.882 4.418a3.32 3.32 0 00-2.422 4.194c-.029 3 .115 6.026.115 9.035s-.144 6.036-.115 9.035a3.32 3.32 0 002.422 4.194c2.583 1.525 5.276 2.913 7.882 4.418s5.155 3.143 7.767 4.618a8.25 8.25 0 002.422 1.049 8.253 8.253 0 002.422-1.049c2.612-1.475 5.161-3.113 7.767-4.618s5.3-2.893 7.882-4.418a3.32 3.32 0 002.422-4.194c.028-3-.116-6.025-.116-9.035s.144-6.035.116-9.035a3.32 3.32 0 00-2.422-4.194c-2.583-1.525-5.276-2.913-7.882-4.418z"
                transform="translate(-222.09 -654.347)" fill="#1e2233" clip-rule="evenodd" />
        </clipPath>
        <clipPath id="prefix__d">
            <path
                d="M245.008 655.4a8.246 8.246 0 00-2.422-1.049 8.243 8.243 0 00-2.422 1.049c-2.612 1.475-5.161 3.113-7.767 4.617s-5.3 2.893-7.882 4.418a3.32 3.32 0 00-2.422 4.194c-.029 3 .115 6.026.115 9.035s-.144 6.036-.115 9.035a3.32 3.32 0 002.422 4.194c2.583 1.525 5.276 2.913 7.882 4.418s5.155 3.143 7.767 4.618a8.25 8.25 0 002.422 1.049 8.253 8.253 0 002.422-1.049c2.612-1.475 5.161-3.113 7.767-4.618s5.3-2.893 7.882-4.418a3.32 3.32 0 002.422-4.194c.028-3-.116-6.025-.116-9.035s.144-6.035.116-9.035a3.32 3.32 0 00-2.422-4.194c-2.583-1.525-5.276-2.913-7.882-4.418s-5.155-3.146-7.767-4.617zm-19.915 34.515a10.491 10.491 0 01-1.708-1.165 10.48 10.48 0 01-.155-2.062c-.029-3.008.115-6.015.115-9.024s-.144-6.015-.115-9.024a10.483 10.483 0 01.155-2.062 10.534 10.534 0 011.708-1.165c2.591-1.529 5.267-2.908 7.873-4.412s5.138-3.133 7.757-4.612a10.47 10.47 0 011.864-.9 10.469 10.469 0 011.863.9c2.62 1.479 5.152 3.108 7.757 4.612s5.282 2.883 7.873 4.412a10.511 10.511 0 011.708 1.165 10.462 10.462 0 01.155 2.062c.029 3.008-.115 6.015-.115 9.024s.145 6.016.115 9.024a10.456 10.456 0 01-.155 2.062 10.49 10.49 0 01-1.708 1.165c-2.591 1.529-5.268 2.908-7.873 4.412s-5.137 3.133-7.757 4.612a10.487 10.487 0 01-1.863.9 10.489 10.489 0 01-1.864-.9c-2.619-1.479-5.152-3.108-7.757-4.612s-5.282-2.887-7.873-4.416z"
                transform="translate(-222.09 -654.347)" fill="none" clip-rule="evenodd" />
        </clipPath>
        <linearGradient id="prefix__b" x1=".5" x2=".5" y2="1" gradientUnits="objectBoundingBox">
            <stop offset="0" stop-color="#404040" />
            <stop offset=".17" stop-color="#878787" />
            <stop offset=".32" stop-color="#a8a8a8" />
            <stop offset=".423" stop-color="#eee" />
            <stop offset=".552" stop-color="#a8a8a8" />
            <stop offset=".877" stop-color="#eee" />
            <stop offset="1" stop-color="#a8a8a8" />
        </linearGradient>
        <linearGradient id="prefix__e" x1=".156" y1=".995" x2=".894" y2="-.067" gradientUnits="objectBoundingBox">
            <stop offset="0" stop-color="#040506" />
            <stop offset=".43" stop-color="#fff" />
            <stop offset="1" stop-color="#040506" />
        </linearGradient>
    </defs>
    <g fill="#fff">
        <path
            d="M77.815 14.335V38.59h-3.4V18.002h-.532l-6.347 19.636h-3.621l-6.383-19.636h-.5V38.59h-3.4V14.335h5.957l6.134 19.778 6.1-19.778zM86.604 37.669a7.31 7.31 0 01-3.067-4 22.082 22.082 0 01-.94-7.1 22.627 22.627 0 01.94-7.139 7.542 7.542 0 013.085-4.124 12.908 12.908 0 0111.525 0 7.546 7.546 0 013.085 4.107 22.748 22.748 0 01.939 7.192 22.318 22.318 0 01-.922 7.086 7.232 7.232 0 01-3.049 3.984 13.534 13.534 0 01-11.595 0zm9.609-2.626a5.031 5.031 0 001.9-2.944 21.749 21.749 0 00.549-5.5 22.18 22.18 0 00-.567-5.588 5.461 5.461 0 00-1.932-3.1 7.6 7.6 0 00-7.553 0 5.447 5.447 0 00-1.933 3.087 21.942 21.942 0 00-.567 5.57 21.349 21.349 0 00.55 5.429 5.281 5.281 0 001.9 3 6.4 6.4 0 003.829.987 6.673 6.673 0 003.824-.937zM125.326 14.335V38.59h-5.957l-8.44-21.293h-.568V38.59h-3.4V14.335h6.063l8.262 21.294h.638V14.335zM143.729 32.914h-9.857l-1.524 5.676h-3.369l6.312-24.255h7.018l6.312 24.255h-3.369zm-9.148-3h8.439l-3.3-12.727h-1.844zM154.508 37.585a7.1 7.1 0 01-2.783-4.055 26.311 26.311 0 01-.763-7.033 26.634 26.634 0 01.78-7.192 7.029 7.029 0 012.748-4.019 9.867 9.867 0 015.585-1.34 32.34 32.34 0 016.808.846l-.107 2.785a34.833 34.833 0 00-6.028-.6 7.051 7.051 0 00-4.007.934 4.722 4.722 0 00-1.808 3.014 28.528 28.528 0 00-.426 6.028 23.941 23.941 0 00.443 5.27 4.484 4.484 0 001.808 2.785 7.448 7.448 0 004.167.934 35.868 35.868 0 005.851-.6l.107 2.856a34.7 34.7 0 01-6.56.776 10.2 10.2 0 01-5.815-1.389zM173.834 37.669a7.311 7.311 0 01-3.068-4 22.083 22.083 0 01-.939-7.1 22.628 22.628 0 01.939-7.139 7.542 7.542 0 013.085-4.124 12.907 12.907 0 0111.524 0 7.544 7.544 0 013.085 4.107 22.747 22.747 0 01.94 7.192 22.318 22.318 0 01-.922 7.086 7.232 7.232 0 01-3.049 3.984 13.534 13.534 0 01-11.595 0zm9.609-2.626a5.031 5.031 0 001.9-2.944 21.734 21.734 0 00.55-5.5 22.178 22.178 0 00-.567-5.588 5.46 5.46 0 00-1.933-3.1 7.6 7.6 0 00-7.553 0 5.445 5.445 0 00-1.932 3.085 21.942 21.942 0 00-.567 5.57 21.362 21.362 0 00.549 5.429 5.283 5.283 0 001.9 3 6.4 6.4 0 003.83.987 6.673 6.673 0 003.823-.935z" />
    </g>
    <g fill="#fff">
        <path
            d="M80.761 49.122h-3.48l-.588 2.08H75.8l2.233-8.088h1.975l2.233 8.088h-.893zm-3.28-.806h3.08l-1.234-4.429h-.611zM86.632 51.045a1.488 1.488 0 01-.57-.894 7.13 7.13 0 01-.164-1.741v-3.051h.881v3.039a6.875 6.875 0 00.094 1.321 1.025 1.025 0 00.341.631 1.267 1.267 0 00.764.187 3.6 3.6 0 001.645-.432V45.36h.882v5.844h-.882v-.409a4.2 4.2 0 01-.893.4 3.3 3.3 0 01-.94.122 2.059 2.059 0 01-1.158-.272zM95.715 51.139a1.1 1.1 0 01-.482-.655 4.443 4.443 0 01-.147-1.291v-3.074h-.835v-.76h.835v-1.784h.87v1.788h1.869v.76h-1.869v2.793a7.3 7.3 0 00.047.976.8.8 0 00.229.491.816.816 0 00.57.17l1.046-.07.059.725a9.08 9.08 0 01-1.258.129 1.887 1.887 0 01-.934-.198zM102.258 51.009a1.725 1.725 0 01-.788-.964 5.233 5.233 0 01-.235-1.73 5.293 5.293 0 01.247-1.782 1.778 1.778 0 01.8-.982 3.005 3.005 0 011.469-.309 2.95 2.95 0 011.476.315 1.811 1.811 0 01.793.982 6.5 6.5 0 01.012 3.506 1.734 1.734 0 01-.782.964 3.767 3.767 0 01-2.992 0zm2.492-.666a1.15 1.15 0 00.476-.69 5.142 5.142 0 00.135-1.338 5.364 5.364 0 00-.141-1.4 1.155 1.155 0 00-.482-.7 1.869 1.869 0 00-.976-.21 1.9 1.9 0 00-.981.21 1.169 1.169 0 00-.494.7 6.7 6.7 0 00-.012 2.735 1.143 1.143 0 00.482.7 1.912 1.912 0 001 .216 1.855 1.855 0 00.993-.223zM110.288 45.359h.87v.409a3.414 3.414 0 011.763-.526 2.45 2.45 0 01.87.146 1.311 1.311 0 01.611.449 4.434 4.434 0 011.023-.426 4.319 4.319 0 011.2-.169 1.893 1.893 0 011.117.286 1.581 1.581 0 01.57.906 6.6 6.6 0 01.17 1.683v3.086h-.881v-3.062a6.547 6.547 0 00-.094-1.274 1.064 1.064 0 00-.347-.643 1.192 1.192 0 00-.747-.2 3.443 3.443 0 00-.811.1 3.245 3.245 0 00-.67.228l-.223.105a5.76 5.76 0 01.153 1.707v3.038h-.882v-3.015a6.886 6.886 0 00-.094-1.315 1.084 1.084 0 00-.341-.648 1.166 1.166 0 00-.741-.2 3.254 3.254 0 00-.788.1 3 3 0 00-.646.228l-.2.105v4.745h-.882zM123.464 51.009a1.725 1.725 0 01-.788-.964 5.233 5.233 0 01-.235-1.73 5.287 5.287 0 01.247-1.782 1.778 1.778 0 01.8-.982 3 3 0 011.469-.309 2.948 2.948 0 011.475.315 1.812 1.812 0 01.794.982 6.5 6.5 0 01.012 3.506 1.735 1.735 0 01-.782.964 3.767 3.767 0 01-2.992 0zm2.492-.666a1.148 1.148 0 00.476-.69 5.131 5.131 0 00.135-1.338 5.37 5.37 0 00-.141-1.4 1.155 1.155 0 00-.482-.7 1.87 1.87 0 00-.976-.21 1.9 1.9 0 00-.981.21 1.169 1.169 0 00-.494.7 6.7 6.7 0 00-.012 2.735 1.14 1.14 0 00.482.7 1.912 1.912 0 001 .216 1.854 1.854 0 00.993-.223zM132.426 51.139a1.1 1.1 0 01-.482-.655 4.445 4.445 0 01-.147-1.291v-3.074h-.835v-.76h.835v-1.784h.87v1.788h1.869v.76h-1.869v2.793a7.315 7.315 0 00.047.976.8.8 0 00.229.491.816.816 0 00.57.17l1.046-.07.059.725a9.081 9.081 0 01-1.258.129 1.887 1.887 0 01-.934-.198zM138.967 51.009a1.725 1.725 0 01-.788-.964 5.232 5.232 0 01-.235-1.73 5.287 5.287 0 01.247-1.782 1.777 1.777 0 01.8-.982 3 3 0 011.469-.309 2.95 2.95 0 011.476.315 1.811 1.811 0 01.793.982 6.5 6.5 0 01.012 3.506 1.735 1.735 0 01-.782.964 3.766 3.766 0 01-2.991 0zm2.492-.666a1.15 1.15 0 00.476-.69 5.131 5.131 0 00.135-1.338 5.354 5.354 0 00-.141-1.4 1.155 1.155 0 00-.482-.7 1.869 1.869 0 00-.976-.21 1.9 1.9 0 00-.982.21 1.169 1.169 0 00-.494.7 6.7 6.7 0 00-.012 2.735 1.143 1.143 0 00.482.7 1.913 1.913 0 001.005.216 1.853 1.853 0 00.991-.223zM146.997 45.359h.87v.8a5.886 5.886 0 012.151-.923v.888a7.268 7.268 0 00-.993.286 7.526 7.526 0 00-.852.357l-.294.152v4.289h-.882zM153.95 50.624a3.487 3.487 0 01-.558-2.191 3.95 3.95 0 01.6-2.408 2.643 2.643 0 013.638-.111 3.091 3.091 0 01.581 2.063l-.047.666h-3.879a3.24 3.24 0 00.159 1.134 1.045 1.045 0 00.541.59 2.535 2.535 0 001.064.181q.341 0 .788-.017t.811-.053l.341-.035.023.69a15.84 15.84 0 01-2.163.187 2.3 2.3 0 01-1.899-.696zm3.38-2.682a2.566 2.566 0 00-.341-1.513 1.313 1.313 0 00-1.117-.45 1.46 1.46 0 00-1.2.473 2.384 2.384 0 00-.4 1.49zM162.291 51.156l-.353-.058.047-.76a15.759 15.759 0 002.022.2 1.942 1.942 0 001.052-.228.81.81 0 00.347-.731.79.79 0 00-.17-.549.964.964 0 00-.435-.269 5.259 5.259 0 00-.747-.152l-.294-.047a5.3 5.3 0 01-1.105-.281 1.279 1.279 0 01-.6-.462 1.467 1.467 0 01-.2-.824 1.516 1.516 0 01.576-1.344 2.858 2.858 0 011.634-.4 9.908 9.908 0 011.7.152l.329.059-.023.748a14.557 14.557 0 00-1.987-.187 1.945 1.945 0 00-1.017.21.718.718 0 00-.335.654.668.668 0 00.164.485.954.954 0 00.429.245 7.3 7.3 0 00.747.158l.294.058a5.455 5.455 0 011.129.3 1.239 1.239 0 01.594.485 1.672 1.672 0 01.194.876 1.654 1.654 0 01-.558 1.385 2.755 2.755 0 01-1.711.438 11.231 11.231 0 01-1.723-.161z" />
    </g>
    <g clip-path="url(#prefix__a)">
        <path transform="translate(-.025)" fill="url(#prefix__b)" d="M0 0h46.043v51.627H0z" />
    </g>
    <path
        d="M33.146 8.508c-2.606-1.5-5.155-3.143-7.767-4.617a8.246 8.246 0 00-2.422-1.049 8.243 8.243 0 00-2.422 1.049c-2.612 1.475-5.161 3.113-7.767 4.617s-5.3 2.893-7.882 4.418a3.32 3.32 0 00-2.422 4.194c-.029 3 .115 6.026.115 9.035s-.144 6.036-.115 9.035a3.32 3.32 0 002.422 4.194c2.583 1.525 5.276 2.913 7.882 4.418s5.155 3.143 7.767 4.618a8.25 8.25 0 002.422 1.049 8.253 8.253 0 002.422-1.049c2.612-1.475 5.161-3.113 7.767-4.618s5.3-2.893 7.882-4.418a3.32 3.32 0 002.422-4.194c.028-3-.116-6.025-.116-9.035s.144-6.035.116-9.035a3.32 3.32 0 00-2.422-4.194c-2.583-1.525-5.276-2.913-7.882-4.418z"
        fill="#1e2233" fill-rule="evenodd" />
    <g transform="translate(2.462 2.842)" clip-path="url(#prefix__c)">
        <path fill="#1e2233" d="M-.025 0h41.041v46.626H-.025z" />
    </g>
    <g transform="translate(2.462 2.842)" clip-path="url(#prefix__d)">
        <path transform="translate(-.025)" fill="url(#prefix__e)" d="M0 0h41.041v46.626H0z" />
    </g>
    <path
        d="M19.267 32.492l7.969-.026 5.556-11.7-.084 19.519c1.916-1.075 3.857-2.106 5.763-3.2V15.157l-6.963-3.814-6.531 11.254zM7.446 15.314v21.768c1.9 1.094 3.846 2.124 5.762 3.2l-.083-19.571 4.973 9.54 3.972-6.88-6.8-12.529z"
        fill="#fff" fill-rule="evenodd" />
</svg>