<svg viewBox="0 0 55 55" width="100%">
    <path d="M55 27.507A27.5 27.5 0 1127.494 0 27.5 27.5 0 0155 27.507z" fill="#fff" />
    <path
        d="M34.878 40.678a20.317 20.317 0 01-20.291-20.291 6.061 6.061 0 016.061-6.061 5.191 5.191 0 011.015.092 4.994 4.994 0 01.949.237 1.318 1.318 0 01.856.988l1.805 7.906a1.318 1.318 0 01-.343 1.212c-.171.184-.184.2-1.805 1.041a13.057 13.057 0 006.417 6.443c.856-1.634.87-1.647 1.054-1.818a1.318 1.318 0 011.212-.343l7.906 1.805a1.318 1.318 0 01.949.856 5.718 5.718 0 01.25.962 6.285 6.285 0 01.079 1 6.061 6.061 0 01-6.114 5.971z"
        fill="##1e2233" /></svg>