<svg xmlns="http://www.w3.org/2000/svg" viewBox="0 0 91.441 91.441" width="100%">
  <g transform="translate(-405.159 -407.414)">
    <circle data-name="Elipse 14" cx="45.721" cy="45.721" r="45.721" transform="translate(405.159 407.414)"
      fill="#e8eef1" />
    <g data-name="Grupo 259">
      <path data-name="Trazado 241"
        d="M450.879 414.466c-11.238 9.716-25.567 10.8-35.659 10.8 0 48.937 27.707 71.294 35.659 71.294s35.659-22.357 35.659-71.294c-10.088-.002-24.421-1.084-35.659-10.8z"
        fill="#feac0c" />
      <path data-name="Trazado 242"
        d="M450.879 498.855c-5.132 0-14.582-6.288-22.713-18.3-6.953-10.277-15.242-28.21-15.242-55.285v-2.3h2.3c10.389 0 23.661-1.164 34.157-10.239l1.5-1.3 1.5 1.3c10.5 9.075 23.768 10.239 34.157 10.239h2.3v2.3c0 27.075-8.289 45.008-15.242 55.285-8.139 12.012-17.584 18.3-22.717 18.3zm-33.342-71.315c.443 24.64 8.034 40.98 14.433 50.437 7.787 11.509 16.159 16.286 18.91 16.286s11.122-4.777 18.91-16.286c6.4-9.457 13.99-25.8 14.433-50.437-9.705-.188-22.685-1.744-33.343-10.1-10.659 8.355-23.638 9.912-33.343 10.1z"
        fill="#ffd110" />
      <g data-name="Grupo 258">
        <g data-name="Grupo 257">
          <path data-name="Trazado 243"
            d="M446.973 471.202a2.167 2.167 0 01-1.73-.863l-8.952-11.886a2.167 2.167 0 013.461-2.608l7.113 9.44 15.07-22.721a2.168 2.168 0 113.611 2.4l-16.768 25.278a2.168 2.168 0 01-1.741.968z"
            fill="#ffd110" />
        </g>
      </g>
    </g>
  </g>
</svg>