<svg xmlns="http://www.w3.org/2000/svg" viewBox="0 0 96.623 93.741" width="100%">
  <g transform="translate(-588.8 -448.769)">
    <circle data-name="Elipse 18" cx="46.87" cy="46.87" r="46.87" transform="translate(591.681 448.769)"
      fill="#e8eef1" />
    <path data-name="Trazado 258"
      d="M654.146 494.004c-4.934-.6-6.066 3.515-11.486 4.715 0 0-6.759.177-5.656 2.265a2.847 2.847 0 001.837 1.111c-1.471.2-2.551.411-2.551.411-7.87-4.243-9.554-2.077-9.554-2.077l9.818 4.513s12.8-.423 13.053-.439 4.182-5.747 4.182-5.747l25.22 9.117 1.759-6.306s-25.134-7.381-26.622-7.563z"
      fill="#ed7558" />
    <path data-name="Trazado 259"
      d="M625.091 500.442c1.137-.808 4.176-1.224 9.579 2.927a15.576 15.576 0 018.22 1.246s10.218-9.838 12.935-9.99 24.943 6.943 24.943 6.943l1.69 7.887-7.328 1.57-16.9-9.182s-10.534 7.091-12.018 8.075c-1.915 1.27-7.975-2.8-11.9-3.465-1.339-.227-7.3-3.808-9.176-4.953a.636.636 0 01-.045-1.058z"
      fill="#f69f75" />
    <path data-name="Trazado 260" d="M659.215 507.665l4.113-11.653 19.387 5.709 2.437 9.017-10.685 2.16z" fill="#fff" />
    <path data-name="Trazado 261" d="M659.215 507.664l6.091-11.07 19.845 14.144-10.685 2.16z" fill="#7ea09f" />
    <path data-name="Trazado 262" d="M660.871 509.163l4.619-13.081 19.665 6.319v16.768z" fill="#cd001f" />
    <path data-name="Trazado 263"
      d="M664.877 507.829a.96.96 0 01-.764 1.062.849.849 0 01-1.021-.709.96.96 0 01.764-1.062.849.849 0 011.021.709z"
      fill="#7c210e" />
    <path data-name="Trazado 264"
      d="M667.65 508.879a.96.96 0 01-.764 1.062.849.849 0 01-1.021-.709.96.96 0 01.764-1.062.848.848 0 011.021.709z"
      fill="#7c210e" />
    <path data-name="Trazado 265"
      d="M621.823 474.982s8.214 2.677 11.735-1.48l4.679.571s2.72 6.961 5.486 6.119c1.19-.362-.261-1.773-3.506-7.915a22.6 22.6 0 00-11.657-3.57z"
      fill="#ed7558" />
    <path data-name="Trazado 266"
      d="M588.8 485.028l18.306-11.792a11.78 11.78 0 001.251-.942 8.03 8.03 0 013.055-1.594c5.26-1.464 18.582-4.906 20.227-4.921.816-.007 6.373 5.986 7.764 7.693a2.223 2.223 0 01.476 1.023c.323 1.849 1.3 7.7.853 8.115-.534.489-2.884.668-4.491-7.691l-5.812-2.132-1.739 2.656s-6.35 6-14.463 2.428L588.8 501.892z"
      fill="#f69f75" />
    <path data-name="Trazado 267" d="M607.704 472.905s2.46 3.871 6.287 5.189l-1.857 1.883-5.139-6.4z" fill="#ed7558" />
    <path data-name="Trazado 268" d="M615.73 484.16l-8.124-11.334-16.908 11.52.3 12.591 9.787-1.313z" fill="#fff" />
    <path data-name="Trazado 269" d="M615.73 484.163l-10.091-9.953-15.88 22.9 11.029-1.48z" fill="#7ea09f" />
    <path data-name="Trazado 270" d="M614.647 486.342l-9.119-12.723-16.728 10.595v21.678z" fill="#394b98" />
    <path data-name="Trazado 271" d="M610.629 486.444a.7.7 0 10.6-.788.7.7 0 00-.6.788z" fill="#1f2e35" />
    <circle data-name="Elipse 19" cx=".701" cy=".701" r=".701" transform="rotate(-61.77 712.356 -264.636)"
      fill="#1f2e35" />
    <path data-name="Trazado 272"
      d="M629.245 475.554l-.964-1.393c-.066-.061-.066-.412.214-.294.622.264.567 1.117 1.936-.974z" fill="#ed7558" />
    <g data-name="Grupo 285">
      <path data-name="Trazado 273" d="M641.29 484.683a2.732 2.732 0 10-2.425 2.657" fill="none" stroke="#d9eae9"
        stroke-miterlimit="10" stroke-width="3.072" />
      <path data-name="Trazado 274"
        d="M635.981 488.209l-.056.927a2.156 2.156 0 001.878 2.206l.694.091a1.82 1.82 0 002.112-1.683l.055-.927a2.156 2.156 0 00-1.878-2.206l-.715-.408a2.046 2.046 0 00-2.09 2zm2.474-1.2c.724.095.668 1.021-.056.926s-.668-1.025.056-.93z"
        fill="#0c1b27" />
      <path data-name="Trazado 275"
        d="M639.38 489.209l-.276 4.577.61.068-.178.359-.477.308-.006.107.588.039-.155.388-.477.308-.006.107.588.039-.155.388-.334.215-.159.358-1.142.906-.975-1.184.315-5.231.239-.4z"
        fill="#6f8d95" />
      <path data-name="Trazado 276"
        d="M639.127 495.831l-.017.266-1.142.906-.974-1.184.156-2.589.038-.641.243-4.031 2.116.277-.223 3.708-.039.64-.013.23.431.427-.477.308-.006.107.432.427-.477.308-.006.107.432.427z"
        fill="#bdcdcd" />
      <path data-name="Trazado 277" d="M639.282 493.189q-1.069.2-2.135.372l.038-.646q1.068-.176 2.136-.371z"
        fill="#cbe3e1" />
      <path data-name="Trazado 278" d="M637.866 496.353l-.393-.7.412-6.841.432.057z" fill="#6f8d95" />
      <path data-name="Trazado 279"
        d="M640.866 489.324l.056-.926a2.157 2.157 0 00-1.879-2.206l-.694-.091a1.822 1.822 0 00-2.1 1.577c0 .035-.008.07-.01.107l-.056.926a2.044 2.044 0 00.484 1.429 2.188 2.188 0 001.394.777l.694.091a1.821 1.821 0 002.111-1.684zm-2.232-1.46c-.724-.094-.659-1.188.066-1.094s.658 1.19-.066 1.094z"
        fill="#172734" />
      <path data-name="Trazado 280" d="M638.644 487.999a.627.627 0 00.728-.58.743.743 0 00-.647-.761" fill="none"
        stroke="#0c1b27" stroke-miterlimit="10" stroke-width="2.895" />
      <path data-name="Trazado 281" d="M636.879 490.433a2.471 2.471 0 001.184.484l.694.091a2.248 2.248 0 001.151-.136"
        fill="none" stroke="#0c1b27" stroke-miterlimit="10" stroke-width="1.177" />
      <path data-name="Trazado 282" d="M638.725 486.654a.627.627 0 00-.728.58.744.744 0 00.648.761" fill="none"
        stroke="#0c1b27" stroke-miterlimit="10" stroke-width="2.895" />
      <path data-name="Trazado 283"
        d="M638.184 488.37l.195.907a2.156 2.156 0 002.4 1.623l.693-.1a2.134 2.134 0 001.807-2.493l-.417-.6a2.157 2.157 0 00-2.4-1.623l-.8-.2a2.046 2.046 0 00-1.478 2.486zm2.061-1.822c.723-.1.917.8.194.907s-.917-.805-.194-.911z"
        fill="#0c1b27" />
      <path data-name="Trazado 284"
        d="M641.798 488.353l.961 4.484.606-.1-.075.394-.377.424.022.1.577-.12-.046.415-.377.424.022.1.577-.12-.046.415-.264.3-.057.387-.857 1.179-1.256-.879-1.1-5.124.124-.448z"
        fill="#6f8d95" />
      <path data-name="Trazado 285"
        d="M643.329 494.802l.055.261-.858 1.178-1.255-.88-.543-2.536-.135-.627-.846-3.948 2.113-.3.779 3.632.134.627.049.226.53.3-.377.424.023.1.531.3-.377.424.023.1.531.3z"
        fill="#bdcdcd" />
      <path data-name="Trazado 286" d="M642.773 492.206q-1.021.319-2.045.617l-.135-.627q1.025-.3 2.046-.617z"
        fill="#cbe3e1" />
      <path data-name="Trazado 287" d="M642.257 495.64l-.566-.57-1.436-6.7.431-.061z" fill="#6f8d95" />
      <path data-name="Trazado 288"
        d="M643.258 488.065l-.195-.907a2.156 2.156 0 00-2.4-1.623l-.693.1a1.822 1.822 0 00-1.6 2.083c.005.035.012.07.019.105l.195.907a2.045 2.045 0 00.849 1.247 2.189 2.189 0 001.552.375l.693-.1a1.821 1.821 0 001.58-2.187zm-2.39-.874c-.667.3-1.183-.669-.516-.967s1.184.67.518.967z"
        fill="#1f3643" />
      <path data-name="Trazado 289" d="M640.764 487.379a.627.627 0 00.546-.754.743.743 0 00-.828-.56" fill="none"
        stroke="#0c1b27" stroke-miterlimit="10" stroke-width="2.895" />
      <path data-name="Trazado 290" d="M639.716 490.201a2.471 2.471 0 001.27.149l.693-.1a2.251 2.251 0 001.072-.439"
        fill="none" stroke="#0c1b27" stroke-miterlimit="10" stroke-width="1.177" />
      <path data-name="Trazado 291" d="M639.889 486.891a2.491 2.491 0 001.4-2.208" fill="none" stroke="#d9eae9"
        stroke-miterlimit="10" stroke-width="3.072" />
      <path data-name="Trazado 292" d="M640.482 486.066a.627.627 0 00-.546.754.744.744 0 00.828.56" fill="none"
        stroke="#0c1b27" stroke-miterlimit="10" stroke-width="2.895" />
    </g>
    <path data-name="Trazado 293"
      d="M612.669 477.532a39.348 39.348 0 0010.429 2.013 25.457 25.457 0 019.159 2.2c.712.318 1.4.624 1.977.885 2.559 1.153 4.173 3.347 5.264 1.442s-2.83-4.515-6.2-5.739-5.238-6.523-5.238-6.523z"
      fill="#f69f75" />
  </g>
</svg>