<svg viewBox="0 0 55 55" width="100%">
    <path d="M55.001 27.5A27.5 27.5 0 1127.491 0a27.5 27.5 0 0127.51 27.5z" fill="#fff" />
    <path
        d="M43.665 23.598a16.605 16.605 0 00-16.176-12.814 21.984 21.984 0 00-3.172.331 16.565 16.565 0 00-11.358 24.164 1.069 1.069 0 01.153.827c-.776 2.529-1.487 5.135-2.174 7.7-.114.445-.114.445.311.33a381.54 381.54 0 018.034-2.085.741.741 0 01.6.039 16.585 16.585 0 0023.783-18.5zM29.823 40.961a7.181 7.181 0 01-1.914.165 14.311 14.311 0 01-7.48-1.919.906.906 0 00-.845-.141c-1.5.37-2.962.776-4.449 1.157-.305.089-.337.038-.267-.28.394-1.36.763-2.758 1.195-4.182a1.048 1.048 0 00-.172-.99 13.678 13.678 0 01.49-15.445c3.5-4.677 8.313-6.623 14.027-5.4A13 13 0 0140.94 24.387a13.677 13.677 0 01-11.117 16.574z"
        fill="#1e2233" fill-rule="evenodd" />
    <path
        d="M31.832 35.278a4.408 4.408 0 01-1.722-.229 16.748 16.748 0 01-8.975-6.6 9.376 9.376 0 01-1.925-3.9 4.532 4.532 0 011.493-4.436 2.58 2.58 0 012.212-.33 1.838 1.838 0 01.369.445c.471 1.182.973 2.276 1.449 3.394a.876.876 0 01-.07.7 6.518 6.518 0 01-1.017 1.373.626.626 0 00-.1.915 11.214 11.214 0 005.663 4.856.647.647 0 00.852-.191c.425-.5.845-1.029 1.239-1.55a.7.7 0 01.921-.229c.814.368 1.614.75 2.39 1.105a3.629 3.629 0 00.559.255c.82.419.82.47.725 1.347-.108 1.742-1.437 2.619-2.956 3.038a2.967 2.967 0 01-1.107.037z"
        fill="#1e2233" fill-rule="evenodd" /></svg>