<svg xmlns="http://www.w3.org/2000/svg" viewBox="0 0 716.085 597.602" width="100%">
    <path
        d="M28.734 203.374s-11.716 3.778-.354 28.9 19.462 37.67 19.462 37.67 1.952 5.8-2.883 6.458-15.311-1.52-17.722 4.246c-2.5 5.979 1.648 11.926 10.371 17.382s27.4 18.11 29.08 19.26c1.653 1.13 3.236 3.86.015 4.837s-27.08 2.339-25.756 13.622 28.122 22.487 31.028 23.768 3.555 2.569 3.238 4.183-8.38 1.315-15.15 1.98-14.5 2.624-13.194 9.069 16.83 20.587 55.866 26.273l18.26 1.45 10.679-14.983c20.9-33.457 20.144-54.44 16.074-59.606s-10.564-.532-15.449 4.2-9.869 11.078-11.305 10.277-2-2.129-1.1-5.174 9.681-30.736 1.931-39.036-24.215 9.017-27.044 10.843-3.888-1.147-3.681-3.138c.211-2.029 2.629-24.456 4.107-34.637s-.376-17.192-6.555-19.15c-5.958-1.888-11.068 7.514-14.7 10.776s-6.79-1.976-6.79-1.976-4.339-14.294-16.156-39.2-22.5-18.2-22.5-18.2"
        fill="#ebebeb" />
    <path
        d="M121.741 406.816c-8.606-18.326-23.356-51.156-36.165-79.275s-24.422-53.55-32.935-71.919l-10.1-21.742-2.743-5.915-.7-1.544c-.155-.349-.221-.534-.221-.534s.1.169.273.51q.27.544.751 1.52l2.84 5.869c2.461 5.1 5.969 12.5 10.269 21.667 8.606 18.327 20.283 43.742 33.087 71.853s27.5 60.973 36.013 79.342"
        fill="#e1e1e1" />
    <path
        d="M41.77 284.284a5.866 5.866 0 011.259.415c.8.3 1.938.763 3.341 1.351 2.806 1.182 6.639 2.912 10.833 4.9l10.721 5.123 3.257 1.531a5.939 5.939 0 011.176.61 5.937 5.937 0 01-1.262-.406c-.8-.3-1.939-.766-3.337-1.37-2.794-1.209-6.6-2.989-10.8-4.975l-10.753-5.044-3.266-1.516a5.978 5.978 0 01-1.169-.619zm31.892 12.818c-.145-.061 3.075-8.12 7.19-18s7.571-17.842 7.716-17.781-3.074 8.118-7.191 18-7.57 17.841-7.715 17.781zm17.721 44.061a6.2 6.2 0 01.8-1.094l2.306-2.863c1.943-2.419 4.613-5.772 7.422-9.578s5.251-7.331 6.991-9.9l2.065-3.042a6.127 6.127 0 01.813-1.081 6.2 6.2 0 01-.626 1.2 95.326 95.326 0 01-1.914 3.143c-1.657 2.63-4.043 6.206-6.87 10.018s-5.545 7.14-7.571 9.5a101.203 101.203 0 01-2.447 2.749 6.235 6.235 0 01-.969.948zm-31.399-5.244a5.239 5.239 0 011.248.08l3.372.427c2.844.385 6.766.957 11.093 1.624s8.241 1.3 11.069 1.787l3.344.606a5.3 5.3 0 011.214.3 5.286 5.286 0 01-1.248-.08l-3.372-.428c-2.844-.385-6.767-.956-11.095-1.623s-8.239-1.3-11.067-1.788l-3.345-.607a5.325 5.325 0 01-1.213-.298zm10.704 40.886a8.559 8.559 0 011.6.118l4.323.531c3.647.474 8.68 1.168 14.233 1.968s10.579 1.557 14.211 2.133l4.3.711a8.682 8.682 0 011.565.337 8.552 8.552 0 01-1.6-.118l-4.323-.532c-3.647-.474-8.68-1.167-14.235-1.968s-10.576-1.557-14.209-2.133l-4.3-.711a8.675 8.675 0 01-1.565-.336zm39.302 5.389a9.867 9.867 0 01.973-1.412l2.793-3.735c2.354-3.156 5.589-7.527 9.024-12.453s6.442-9.46 8.59-12.76l2.547-3.906a10.008 10.008 0 01.99-1.4 9.775 9.775 0 01-.8 1.516c-.548.956-1.362 2.328-2.4 4.006-2.063 3.358-5.015 7.938-8.464 12.869s-6.733 9.276-9.172 12.373a156.783 156.783 0 01-2.938 3.627 9.96 9.96 0 01-1.143 1.275z"
        fill="#e1e1e1" />
    <path
        d="M647.834 320.879a9.534 9.534 0 012.442 7.054 16.826 16.826 0 01-2.275 7.261c-2.386 4.338-6.859 7.869-11.137 10.361-2.457-4.919-.942-11.115.025-14.209 1.527-4.892 7.259-12.8 10.945-10.467m-9.6 34.017a8.132 8.132 0 015.37-6.153 10.8 10.8 0 018.314.727 4.551 4.551 0 012.638 2.781 3.479 3.479 0 01-1.291 3.281 7.046 7.046 0 01-3.391 1.385c-4.176.719-8.349.647-11.641-2.022"
        fill="#ebebeb" />
    <path
        d="M627.586 366.833a5.689 5.689 0 01.52-.878c.39-.608.9-1.394 1.5-2.337a28.534 28.534 0 015.926-7 17.463 17.463 0 018.323-3.776 11.853 11.853 0 012.792-.074 7.319 7.319 0 01.751.107.765.765 0 01.257.066 18.6 18.6 0 00-3.762.152 18.044 18.044 0 00-8.138 3.805 30.753 30.753 0 00-5.938 6.862 99.002 99.002 0 01-1.6 2.273 5.43 5.43 0 01-.631.8z"
        fill="#e1e1e1" />
    <path
        d="M644.004 327.29a2.047 2.047 0 01-.121.427l-.412 1.2c-.364 1.041-.91 2.541-1.6 4.388-1.381 3.695-3.359 8.772-5.67 14.329s-4.521 10.541-6.168 14.124c-.823 1.792-1.5 3.236-1.983 4.229l-.562 1.139a2.125 2.125 0 01-.218.387 2.043 2.043 0 01.152-.417l.5-1.167 1.879-4.274c1.587-3.608 3.756-8.6 6.068-14.158s4.324-10.612 5.765-14.281l1.707-4.346.476-1.178a2.1 2.1 0 01.187-.402z"
        fill="#e1e1e1" />
    <path
        d="M630.467 354.941a19.028 19.028 0 00-4.311-16.841c-1.028-1.139-2.536-2.227-3.98-1.707s-1.914 2.33-1.943 3.867a16.256 16.256 0 009.99 15.018"
        fill="#ebebeb" />
    <path
        d="M625.001 342.672a4.832 4.832 0 01.668.689 9.134 9.134 0 01.717.867c.256.356.586.737.868 1.214a16.533 16.533 0 01.924 1.557 18.724 18.724 0 01.893 1.879 21.132 21.132 0 011.277 4.589 20.71 20.71 0 01.126 4.764 17.912 17.912 0 01-.319 2.057 15.5 15.5 0 01-.452 1.754 14.052 14.052 0 01-.5 1.405 8.464 8.464 0 01-.459 1.028 4.863 4.863 0 01-.461.841c-.074-.034.576-1.243 1.179-3.347a16.548 16.548 0 00.4-1.74 19.125 19.125 0 00.282-2.028 21.516 21.516 0 00-.152-4.681 21.941 21.941 0 00-1.229-4.519 19.625 19.625 0 00-.849-1.865c-.275-.582-.595-1.088-.874-1.558-1.16-1.856-2.098-2.856-2.039-2.906z"
        fill="#e1e1e1" />
    <path fill="#ebebeb"
        d="M0 504.614h710.26v.355H0zm592.043 22.864h47.051v.355h-47.051zm-133.887 3.855h12.349v.355h-12.349zm105.202-17.046h27.263v.355h-27.263zm-488.839 2.388h61.357v.355H74.519zm74.004 0h8.996v.355h-8.996zm38.234 5.997h133.069v.355H186.757z" />
    <path
        d="M174.48 118.015a12.517 12.517 0 00-16.118-12 26.8 26.8 0 00.281-3.846 26.51 26.51 0 00-31.409-26.066 23.18 23.18 0 00-42.985 11.72c-.129 0-.255-.02-.386-.02a21.365 21.365 0 100 42.73h78.463l-.016-.018a12.517 12.517 0 0012.17-12.5zm419.544 53.316a7.991 7.991 0 00-10.293-7.658 16.927 16.927 0 00-19.874-19.1 14.8 14.8 0 00-27.445 7.483c-.084 0-.163-.013-.247-.013a13.641 13.641 0 100 27.282h50.1l-.01-.01a7.992 7.992 0 007.769-7.984zM399.278 61.66a4.894 4.894 0 00-6.306-4.691 10.37 10.37 0 00-12.175-11.7 9.066 9.066 0 00-16.812 4.584c-.05 0-.1-.008-.152-.008a8.357 8.357 0 000 16.713h30.689l-.005-.007a4.9 4.9 0 004.761-4.891z"
        fill="#f0f0f0" />
    <ellipse cx="275.423" cy="16.085" rx="275.423" ry="16.085" transform="translate(79.707 536.599)" fill="#f5f4f5" />
    <g fill="#fafafa">
        <path d="M37.966 376.395h36.941v127.847H37.966z" />
        <path d="M70.316 404.439h36.941v99.804H70.316z" />
        <path d="M93.938 322.193h36.942v182.05H93.938z" />
        <path d="M118.487 174.592h36.941v329.651h-36.941z" />
        <path d="M147.671 200.251H246.8v303.992h-99.129z" />
    </g>
    <g fill="#fafafa">
        <path d="M674.385 504.243h-42.207v-87.501h42.207z" />
        <path d="M637.425 504.243h-42.207v-68.308h42.207z" />
        <path d="M610.436 504.243H568.23V379.644h42.206z" />
        <path d="M582.388 504.243h-42.207v-225.62h42.207z" />
    </g>
    <path fill="#f0f0f0" d="M433.364 228.623h129.515v275.619H433.364z" />
    <path
        d="M544.377 240.174h6.168v33.541h-6.168zm0 52.451h6.168v33.541h-6.168zm0 52.452h6.168v33.541h-6.168zm0 52.451h6.168v33.541h-6.168zm0 52.451h6.168v33.541h-6.168zm-21.853-209.805h6.167v33.541h-6.167zm0 52.451h6.167v33.541h-6.167zm0 52.452h6.167v33.541h-6.167zm0 52.451h6.167v33.541h-6.167zm0 52.451h6.167v33.541h-6.167zm-21.853-209.805h6.167v33.541h-6.167zm0 52.451h6.167v33.541h-6.167zm0 52.452h6.167v33.541h-6.167zm0 52.451h6.167v33.541h-6.167zm0 52.451h6.167v33.541h-6.167zm-21.853-209.805h6.167v33.541h-6.167zm0 52.451h6.167v33.541h-6.167zm0 52.452h6.167v33.541h-6.167zm0 52.451h6.167v33.541h-6.167zm0 52.451h6.167v33.541h-6.167zm-21.853-209.805h6.167v33.541h-6.167zm0 52.451h6.167v33.541h-6.167zm0 52.452h6.167v33.541h-6.167zm0 52.451h6.167v33.541h-6.167zm0 52.451h6.167v33.541h-6.167z"
        fill="#f5f4f5" />
    <path d="M433.364 228.623h26.685l11.6 275.619h-38.285z" fill="#e1e1e1" opacity=".5" />
    <path d="M369.697 122.124l76.806 14.535v367.583h-76.806z" fill="#f0f0f0" />
    <path fill="#e6e6e6" d="M308.252 122.124h61.445v382.118h-61.445z" />
    <path fill="#e1e1e1"
        d="M446.504 155.743H308.252v-1.957h138.252zm0 20.806H308.252v-1.957h138.252zm0 20.806H308.252v-1.957h138.252zm0 20.806H308.252v-1.957h138.252zm0 20.806H308.252v-1.957h138.252zm0 20.807H308.252v-1.957h138.252zm0 20.806H308.252v-1.957h138.252zm0 20.806H308.252v-1.957h138.252zm0 20.806H308.252v-1.957h138.252zm0 20.807H308.252v-1.957h138.252zm0 20.806H308.252v-1.957h138.252zm0 20.806H308.252v-1.957h138.252zm0 20.806H308.252v-1.957h138.252zm0 20.806H308.252v-1.957h138.252zm0 20.807H308.252v-1.957h138.252zm0 20.806H308.252v-1.957h138.252zm0 20.806H308.252v-1.957h138.252z" />
    <path fill="#f0f0f0" d="M210.4 40.914h64.244v463.329H210.4z" />
    <path d="M274.644 40.914H210.4L234.042 0h92z" fill="#fafafa" />
    <path d="M274.643 40.914L326.038 0v504.243h-51.395z" fill="#ebebeb" />
    <path fill="#e1e1e1"
        d="M210.4 62.501h115.638v2.467H210.4zm0 26.226h115.638v2.467H210.4zm0 26.226h115.638v2.467H210.4zm0 26.225h115.638v2.467H210.4zm0 26.226h115.638v2.467H210.4zm0 26.226h115.638v2.467H210.4zm0 26.225h115.638v2.467H210.4zm0 26.226h115.638v2.467H210.4zm0 26.226h115.638v2.467H210.4zm0 26.225h115.638v2.467H210.4zm0 26.226h115.638v2.467H210.4zm0 26.226h115.638v2.467H210.4zm0 26.225h115.638v2.467H210.4zm0 26.226h115.638v2.467H210.4zm0 26.225h115.638v2.467H210.4zm0 26.226h115.638v2.467H210.4zm0 26.226h115.638v2.467H210.4z" />
    <path fill="#f0f0f0" d="M129.106 265.115h70.128v239.127h-70.128z" />
    <path fill="#e6e6e6"
        d="M142.911 277.477h11.255v38.379h-11.255zm27.609 0h11.255v38.379H170.52zm-27.609 49.701h11.255v38.378h-11.255zm27.609 0h11.255v38.378H170.52zm-27.609 49.701h11.255v38.378h-11.255zm27.609 0h11.255v38.378H170.52zm-27.609 49.702h11.255v38.378h-11.255zm27.609 0h11.255v38.378H170.52z" />
    <path d="M199.235 265.115h-70.129l16.45-16.567h70.128z" fill="#fff" />
    <path d="M199.234 265.115l16.45-16.567 16.45 16.567v239.128h-32.9z" fill="#e6e6e6" />
    <path fill="#ebebeb" d="M89.268 419.554h534.281v78.394H89.268z" />
    <path fill="#ebebeb" d="M89.268 419.554h534.281v78.394H89.268z" opacity=".5" />
    <circle cx="51.519" cy="51.519" transform="rotate(-3.849 6741.521 -1355.53)" fill="#263239" r="51.519" />
    <path d="M109.556 496.55c0 .044-.008.088-.009.133a51.519 51.519 0 00103.026 1.486v-.133z" fill="#263239" />
    <path d="M124.894 496.904a36.169 36.169 0 1036.687-35.644 36.169 36.169 0 00-36.687 35.644z" fill="#fafafa" />
    <path d="M161.581 461.26a36.169 36.169 0 00-36.687 35.644l72.331 1.044a36.169 36.169 0 00-35.644-36.688z"
        fill="#e1e1e1" />
    <path d="M139.03 497.108a22.033 22.033 0 1022.347-21.713 22.032 22.032 0 00-22.347 21.713z" fill="#263239" />
    <circle cx="51.519" cy="51.519" transform="rotate(-3.33 7984.776 -8399.311)" fill="#263239" r="51.519" />
    <path d="M503.514 496.55c0 .044-.008.088-.009.133a51.518 51.518 0 00103.026 1.486v-.133z" fill="#263239" />
    <path d="M518.852 496.903a36.169 36.169 0 1036.687-35.644 36.169 36.169 0 00-36.687 35.644z" fill="#fafafa" />
    <path d="M555.538 461.259a36.167 36.167 0 00-36.686 35.644l72.331 1.044a36.169 36.169 0 00-35.645-36.688z"
        fill="#e1e1e1" />
    <path d="M532.988 497.108a22.033 22.033 0 1022.347-21.713 22.032 22.032 0 00-22.347 21.713z" fill="#263239" />
    <path
        d="M228.594 375.449s-75.865 5.6-103.984 11.9c-19.817 4.445-58.03 12.115-57.569 36.156l3.03 17.233s-14.178 6.474-14.178 22.993-3.46 42.149 29.625 43.172c5.453.168 15.81 0 15.81 0s-6.351-70.465 58.386-72.528c65.857-2.1 61.483 71.883 61.483 71.883h274.86s-11.281-72.077 59.615-72.178 60.109 72.65 60.109 72.65 26.079 2.256 38.214-19.662 8.977-37.521 8.977-37.521l-.4-13.853a8.97 8.97 0 00-8.621-8.7s4.737-34.885-2.53-40.923-47.117-42.463-47.117-42.463l1.9-1.192a4.468 4.468 0 00-.923-8.008c-15.126-5.2-45.035-15.494-52.067-17.954a12.8 12.8 0 00-3.267-.685c-4.195-.322-16.076-1.075-37.886-1.308-26.57-.284-132.058 0-132.058 0s-36.3 2.985-56.528 11.888c-21.263 9.36-94.881 49.1-94.881 49.1z"
        fill="#2b2d42" />
    <path
        d="M75.127 461.822c-2.751-.56-6.97-.615-9.067 1.252-1.558 1.385-1.971 3.625-2.208 5.7a24.428 24.428 0 00.19 8.54 10.435 10.435 0 004.814 6.81c2.515 1.367 5.967 1.142 7.923-.948 1.788-1.91 1.993-4.78 1.946-7.4-.067-3.716.232-6.863-.452-10.516a5.15 5.15 0 00-.947-2.12 2.86 2.86 0 00-2.2-1.318"
        opacity=".4" />
    <path
        d="M70.071 440.74c8.054.017 15.865-.442 23.9-.978a3.888 3.888 0 002.45-.741 3.931 3.931 0 00.839-2.933c.038-4.316-.177-9.221-3.451-12.034-2-1.719-4.745-2.252-7.37-2.5a47.678 47.678 0 00-19.4 1.954z"
        fill="#fafafa" />
    <path
        d="M237.301 504.054s-.03-.232-.063-.687l-.133-2.021c-.1-1.794-.241-4.409-.425-7.773s-.413-7.5-.9-12.277a96.453 96.453 0 00-2.839-16.016 72.711 72.711 0 00-7.756-18.061 56.725 56.725 0 00-14.983-16.719c-13-9.244-30.551-14.47-48.914-14.694-18.41-.22-35.9 5.6-48.568 15.292a71.282 71.282 0 00-15.768 16.093 76.291 76.291 0 00-9.23 17.362 70.7 70.7 0 00-3.9 15.763 66.268 66.268 0 00-.473 12.264 62.013 62.013 0 00.944 7.708l.361 1.991c.079.449.106.683.106.683s-.061-.226-.156-.672l-.41-1.983a58.11 58.11 0 01-1.04-7.715 65.449 65.449 0 01.39-12.311 70.445 70.445 0 013.843-15.851 76.3 76.3 0 019.224-17.48 71.5 71.5 0 0115.831-16.218c12.731-9.776 30.337-15.645 48.848-15.423 18.464.228 36.091 5.485 49.182 14.821a57.036 57.036 0 0115.071 16.875 72.779 72.779 0 017.741 18.182 95.7 95.7 0 012.777 16.081c.459 4.785.655 8.919.813 12.295l.331 7.778.083 2.023c.017.456.013.69.013.69z"
        fill="#fff" />
    <path
        d="M240.219 505.251s-.017-.194-.032-.577-.034-.96-.062-1.707l-.206-6.657-.719-25.251c-.309-10.866-.659-24.072-1.072-39.2l-.316-11.7a39.541 39.541 0 01.263-6.119l.44-3.1.637-3.106a62.631 62.631 0 014.285-12.336 61.7 61.7 0 017.055-11.72l.02-.025.032-.02 47.6-29.987 12.854-8.094a100.885 100.885 0 0113.607-7.6 139.246 139.246 0 0114.775-5.9c2.529-.886 5.12-1.614 7.709-2.385 2.62-.66 5.231-1.405 7.9-1.94a179.826 179.826 0 0130.68-3.863 288.84 288.84 0 0129.7.1l.284.016-.062.279-12.794 57.205-.008.035-.021.035a62.4 62.4 0 00-5.737 12.289 33.586 33.586 0 00-1.942 12.718c.327 4.227.443 8.364.551 12.376l.229 11.693c.222 15.117.279 28.306.321 39.171l.027 25.234-.024 6.652-.016 1.707c-.006.382-.018.577-.018.577s-.012-.195-.018-.577-.011-.96-.018-1.707l-.042-6.652-.147-25.232c-.079-10.864-.171-24.052-.424-39.166l-.251-11.689c-.115-4.014-.238-8.135-.57-12.357a33.977 33.977 0 011.943-12.881 62.741 62.741 0 015.767-12.392l-.029.07c3.923-17.618 8.2-36.841 12.744-57.225l.221.295a289.456 289.456 0 00-29.643-.086 179.647 179.647 0 00-30.594 3.865c-2.662.533-5.265 1.277-7.876 1.934-2.58.768-5.163 1.493-7.683 2.376a138.965 138.965 0 00-14.725 5.877 100.492 100.492 0 00-13.543 7.555l-12.861 8.09-47.635 29.952.052-.045a61.362 61.362 0 00-7.011 11.619 62.3 62.3 0 00-4.275 12.249c-2.166 8.253-1.074 16.395-1.056 23.935.374 15.123.7 28.318.971 39.192s.46 19.412.6 25.251l.141 6.659.027 1.708c.002.388-.005.582-.005.582z"
        fill="#263239" />
    <path
        d="M415.043 325.684s.152-.018.45-.031l1.325-.044 5.113-.124 18.961-.374 63.927-1.09h.12l.077.094 8.957 10.967 25.579 31.363 2.909 3.57a20.492 20.492 0 012.392 3.837 19.992 19.992 0 01.362 16.257l-2.914 6.784-8.838 20.449-2.426 5.55c-.276.618-.49 1.1-.642 1.438-.148.322-.235.483-.235.483s.056-.174.188-.5l.6-1.458c.543-1.3 1.33-3.175 2.339-5.587l8.692-20.512c1.659-4.354 4.574-8.933 4.375-14.517a19.678 19.678 0 00-1.9-8.2 20.06 20.06 0 00-2.346-3.742l-2.916-3.564-25.61-31.336-8.952-10.968.2.09-63.93.924-18.963.223-5.114.037h-1.325c-.302-.006-.455-.019-.455-.019zm-32.271 85.007c0-.028.269-.024.765-.113a5.323 5.323 0 002.025-.806 5.175 5.175 0 002.06-2.681 5.75 5.75 0 00.263-2.12 5.212 5.212 0 00-.6-2.29 5.1 5.1 0 00-4.435-2.7l-6.491.019-14.881.02a5.045 5.045 0 00-5 4.472 5.631 5.631 0 00.616 3.4 5.1 5.1 0 002.463 2.188 7.747 7.747 0 003.2.391l3.153.013 5.658.031 8.194.079 2.228.047a4.63 4.63 0 01.777.051 4.479 4.479 0 01-.777.05l-2.228.047-8.194.08-5.658.03-3.153.013c-.549-.006-1.077.023-1.664-.013a5.468 5.468 0 01-4.419-2.771 6.122 6.122 0 01-.688-3.689 5.534 5.534 0 015.489-4.92l14.881.02 6.5.027a5.44 5.44 0 015.344 5.4 6 6 0 01-.317 2.216 5.329 5.329 0 01-2.219 2.754 5.1 5.1 0 01-2.116.741 3.14 3.14 0 01-.776.014z"
        fill="#263239" />
    <path
        d="M525.226 410.691c0-.028.27-.024.766-.113a5.322 5.322 0 002.025-.806 5.175 5.175 0 002.06-2.681 5.747 5.747 0 00.263-2.12 5.212 5.212 0 00-.6-2.29 5.1 5.1 0 00-4.435-2.7l-6.491.019-14.88.02a5.047 5.047 0 00-5 4.472 5.637 5.637 0 00.616 3.4 5.1 5.1 0 002.463 2.188 7.747 7.747 0 003.2.391l3.152.013 5.659.031 8.193.079 2.228.047a4.615 4.615 0 01.776.051 4.465 4.465 0 01-.776.05l-2.228.047-8.193.08-5.659.03-3.152.013c-.549-.006-1.077.023-1.664-.013a5.466 5.466 0 01-4.419-2.771 6.122 6.122 0 01-.688-3.689 5.534 5.534 0 015.489-4.92l14.88.02 6.5.027a5.44 5.44 0 015.344 5.4 6.007 6.007 0 01-.317 2.216 5.327 5.327 0 01-2.219 2.754 5.1 5.1 0 01-2.115.741 3.143 3.143 0 01-.778.014z"
        fill="#263239" />
    <path
        d="M650.151 387.445h-28.5a10.518 10.518 0 00-9.31 5.623 10.519 10.519 0 00-.318 9.135l11.179 25.391 28.542-.281s6.065-32.186-1.593-39.868z"
        fill="#fafafa" />
    <path
        d="M254.271 383.854l147.08-2.71 95.721-1.753 31.565-18.224a4.9 4.9 0 001.454-7.209l-19.65-25.817a10.935 10.935 0 00-8.613-4.312l-107.061-.87s-40.317-2.344-72.078 15.442c-33.427 18.716-68.418 45.453-68.418 45.453z"
        fill="#263239" />
    <path
        d="M321.68 325.622s7.372 3.362 2.574 6.477-79.313 50.093-79.313 50.093l-17.13-7.753c30.341-16.905 60.989-33.322 93.869-48.817z"
        fill="#8d99ae" />
    <path
        d="M247.347 383.367s-.154.048-.459.117l-1.357.295-5.226 1.082c-4.547.9-11.133 2.174-19.3 3.577-16.334 2.811-39.02 6.088-64.225 8.267-6.3.548-12.462 1-18.413 1.389s-11.689.752-17.141 1.251c-10.9.95-20.673 2.539-28.607 4.9a80.821 80.821 0 00-18.037 7.524c-2.05 1.081-3.509 2.138-4.547 2.778l-1.171.744c-.265.165-.409.24-.409.24s.124-.1.38-.282l1.145-.786c1.021-.667 2.466-1.753 4.506-2.863a78.874 78.874 0 0118.034-7.695c7.951-2.414 17.747-4.043 28.666-5.02 5.46-.513 11.2-.885 17.15-1.282s12.1-.851 18.4-1.4c25.188-2.178 47.867-5.4 64.209-8.118a997.56 997.56 0 0019.324-3.42l5.244-.989 1.366-.246c.307-.049.468-.063.468-.063zm414.193 65.857c0 .139-9.8.251-21.893.251s-21.895-.112-21.895-.251 9.8-.251 21.895-.251 21.893.118 21.893.251zm-179.334 25.022c0 .138-55.336.251-123.581.251-68.269 0-123.593-.112-123.593-.251s55.324-.251 123.593-.251c68.245 0 123.581.112 123.581.251zM94.755 450.057c0 .138-7.825.251-17.474.251s-17.476-.112-17.476-.251 7.823-.251 17.476-.251 17.474.112 17.474.251z"
        fill="#263239" />
    <path
        d="M603.522 342.599s-6.566 7.353-3.986 12.749 29.26 24.281 29.26 24.281l19.366 3.634zm-184.121-13.157l-4.357 47.026 77.925-2.221 31.408-18.255-20.334-26.549zm-146.674 49.433s47.008-33.951 65.557-40.7c17.9-6.513 27.233-8.145 44.049-8.623 16.072-.457 25.864-.014 25.864-.014l-12.423 47.811z"
        fill="#8d99ae" />
    <path
        d="M265.846 379.031a8.238 8.238 0 014.2-7.182l10.8-6.067a20.589 20.589 0 0110.083-2.639 20.6 20.6 0 016.411 1.024 11.707 11.707 0 017.873 10.75 11.9 11.9 0 01-11.89 12.352h-19.239a8.238 8.238 0 01-8.238-8.238z"
        fill="#2b2d42" />
    <path
        d="M265.847 379.031c.027 0 .032.364.124 1.043a8.211 8.211 0 004.259 6.08 8.154 8.154 0 002.778.875 32.513 32.513 0 003.32.063l16.473-.054a12.546 12.546 0 004.586-.751 11.7 11.7 0 004.072-2.59 11.582 11.582 0 002.749-4.174 11.911 11.911 0 00.719-5.093 11.671 11.671 0 00-4.86-8.622 12.4 12.4 0 00-4.464-1.881 20.389 20.389 0 00-13.117 1.259c-1.243.554-2.378 1.257-3.505 1.866l-3.217 1.789-5.535 3.068a8.225 8.225 0 00-3.307 3.261 8.385 8.385 0 00-.958 2.818c-.1.68-.091 1.044-.119 1.044a5.105 5.105 0 01.018-1.057 8.025 8.025 0 01.886-2.9 8.352 8.352 0 013.342-3.414l5.5-3.132 3.2-1.817c1.12-.616 2.249-1.329 3.523-1.907a20.739 20.739 0 0113.4-1.346 12.86 12.86 0 014.634 1.944 12.146 12.146 0 015.079 8.985 12.405 12.405 0 01-.753 5.311 12.188 12.188 0 01-7.12 7.034 13 13 0 01-4.753.764l-16.473-.053a31.809 31.809 0 01-3.362-.1 8.4 8.4 0 01-2.87-.945 8.532 8.532 0 01-3.35-3.413 8 8 0 01-.877-2.9 6.232 6.232 0 01-.022-1.055z"
        fill="#2b2d42" />
    <path
        d="M628.043 504.492s0-.228.027-.668l.131-1.956c.053-.859.155-1.921.212-3.178s.093-2.712.148-4.344c.015-1.634-.009-3.452-.028-5.44-.128-1.985-.138-4.149-.407-6.456a83.549 83.549 0 00-2.786-15.49 69.626 69.626 0 00-3.068-8.623 57.437 57.437 0 00-4.649-8.75 59.612 59.612 0 00-15.054-15.713 71.135 71.135 0 00-21.6-10.646c-8.033-2.462-16.772-3.357-25.67-3.419a84.331 84.331 0 00-25.619 3.727 72.151 72.151 0 00-11.4 4.707 65.692 65.692 0 00-9.9 6.469 82.591 82.591 0 00-15.251 15.64 61.212 61.212 0 00-5.069 8.513 85 85 0 00-3.505 8.461 100.817 100.817 0 00-5.558 27.021c-.154 3.264-.137 5.8-.055 7.523l.112 1.955c.023.441.022.669.022.669s-.033-.224-.072-.664l-.163-1.954a75.1 75.1 0 01-.039-7.54 99.323 99.323 0 015.419-27.128 84.877 84.877 0 013.492-8.512 61.371 61.371 0 015.081-8.59 82.7 82.7 0 0115.3-15.758 65.956 65.956 0 019.961-6.529 72.5 72.5 0 0111.477-4.751 84.62 84.62 0 0125.776-3.766c8.932.062 17.719.964 25.811 3.451a71.424 71.424 0 0121.724 10.749 65.677 65.677 0 018.517 7.47 52.223 52.223 0 016.615 8.391 57.659 57.659 0 014.655 8.823 69.616 69.616 0 013.053 8.68 83.084 83.084 0 012.725 15.559c.256 2.315.253 4.485.367 6.474 0 1.993.014 3.815-.016 5.451l-.195 4.349c-.072 1.258-.192 2.319-.26 3.178s-.138 1.5-.181 1.951c-.045.44-.08.664-.08.664zM393.718 383.854a.772.772 0 01-.223.027l-.653.027-2.512.055-9.237.166c-7.8.147-18.57.433-30.469.757s-22.68.555-30.483.61c-3.9.03-7.059.033-9.24.006l-2.512-.038-.654-.023a.765.765 0 01-.223-.025.778.778 0 01.223-.027l.653-.027 2.511-.056 9.237-.166c7.8-.146 18.572-.433 30.474-.757s22.675-.554 30.478-.61c3.9-.03 7.059-.032 9.24-.006l2.513.039.653.023a.752.752 0 01.224.025zm-12.769 14.481a142.027 142.027 0 01-16.873 0 142.027 142.027 0 0116.873 0zm3.096-51.534c.052.128-10.422 4.489-23.39 9.738s-23.529 9.4-23.581 9.274 10.419-4.488 23.392-9.739 23.527-9.402 23.579-9.273zM362.823 350.09c.055.127-9.918 4.52-22.271 9.81s-22.416 9.478-22.47 9.351 9.916-4.519 22.273-9.812 22.413-9.476 22.468-9.349zM497.411 344.98c.052.129-10.422 4.489-23.39 9.738s-23.529 9.4-23.581 9.274 10.419-4.489 23.392-9.739 23.527-9.402 23.579-9.273zM476.189 348.269c.055.127-9.918 4.52-22.272 9.81s-22.416 9.478-22.47 9.35 9.916-4.519 22.273-9.811 22.414-9.477 22.469-9.349zM499.457 383.845c0 .139-20.828.375-46.517.528s-46.524.165-46.525.027 20.824-.375 46.522-.528 46.519-.165 46.52-.027zM522.524 397.529c0 .139-5.84.305-13.046.373s-13.051.01-13.052-.129 5.839-.306 13.047-.373 13.049-.01 13.051.129zM123.704 390.409a2.479 2.479 0 01-.567.109l-1.633.214c-.71.081-1.577.188-2.578.353s-2.148.3-3.4.557c-2.516.437-5.484 1.1-8.743 1.965-3.25.9-6.785 2.032-10.414 3.44a110.722 110.722 0 00-9.979 4.557c-2.981 1.579-5.606 3.114-7.748 4.5-1.09.665-2.028 1.339-2.872 1.9s-1.556 1.07-2.131 1.493l-1.342.953a2.508 2.508 0 01-.49.306 2.451 2.451 0 01.427-.386l1.288-1.029c.559-.448 1.252-.983 2.087-1.566s1.758-1.284 2.839-1.971c2.124-1.433 4.743-3.006 7.726-4.615a94.737 94.737 0 0120.488-8.035c3.281-.848 6.271-1.474 8.8-1.867 1.26-.232 2.414-.352 3.422-.485s1.88-.219 2.595-.27l1.644-.121a2.512 2.512 0 01.581-.002zM295.666 367.689c-.038.028-.284-.377-.927-.9a6.381 6.381 0 00-3.182-1.285 13.859 13.859 0 00-5.134.556 39.185 39.185 0 00-6.062 2.063 39.749 39.749 0 00-9.864 6.132c-2.288 1.924-3.5 3.342-3.57 3.275a6.459 6.459 0 01.813-1.025 31.49 31.49 0 012.525-2.518 37.051 37.051 0 0116.05-8.376 13.641 13.641 0 015.292-.458 6.246 6.246 0 013.259 1.488 4.186 4.186 0 01.643.74c.12.193.171.299.157.308z"
        fill="#fff" />
    <path
        d="M605.704 342.255a15.477 15.477 0 01-4.1.419 25.215 25.215 0 01-4.808-.6 43.146 43.146 0 01-6.128-1.89c-2.224-.84-4.6-1.9-7.157-3l-4-1.613c-1.376-.548-2.828-1.02-4.3-1.556a167.344 167.344 0 00-19.627-5.349 225.221 225.221 0 00-36.678-4.566c-2.365-.129-4.508-.13-6.389-.183h-4.826l-3.05.068h-.794a1.073 1.073 0 01-.271-.016 1.124 1.124 0 01.269-.036l.792-.055 3.049-.162 4.833-.086c1.884.027 4.031 0 6.4.109a213.957 213.957 0 0136.769 4.431 162.472 162.472 0 0119.674 5.4c1.472.543 2.926 1.025 4.305 1.582l4 1.643c2.557 1.112 4.916 2.191 7.12 3.048a44.222 44.222 0 006.062 1.948 26.165 26.165 0 004.752.674 21.487 21.487 0 003.035-.113l.787-.095a1.053 1.053 0 01.281-.002zM207.991 334.986a1.489 1.489 0 01-1.466-1.237c-2.89-16.708-8.651-34.709-12.932-34.709h-.019c-4.722.058-8.118 15.6-9.022 26.625a1.49 1.49 0 01-2.969-.243c.4-4.884 2.853-29.248 11.954-29.361h.048c8.992 0 14.8 30.964 15.875 37.182a1.49 1.49 0 01-1.214 1.721 1.531 1.531 0 01-.255.022z"
        fill="#263239" />
    <path
        d="M217.609 368.703c-5.3 3.01-29.137-3.753-38.879-10.561a12.251 12.251 0 01-3.679-3.574c-4.335-7.658 3.516-33.71 3.516-33.71l34.633 12.334v.016l.819.282s9.816 31.685 3.59 35.213z"
        fill="#263239" />
    <path
        d="M241.993 297.903c-2.07.477-12.08-6.316-12.08-6.316s-25.8 23.595-36.436 20.273c-3.426-1.072-5.794-3.366-7.448-7.359-1.58-3.813-2.5-9.16-3.084-16.5-.4-5.109-.834-9.354-1.281-12.841-1.355-10.993-2.681-14.6-2.681-14.6l3.843-15.924c13.645 3.933 7.434 49.842 12.006 55.875s30.835-13.018 30.835-13.018a6.272 6.272 0 016.7-3.709c4.9.76 12.275 1.937 12.855 3.709s-1.173 9.919-3.229 10.41z"
        fill="#f7c0bb" />
    <path
        d="M195.138 296.379v3.369c4.037 3.467 8.833 19.235 11.388 34a1.489 1.489 0 001.466 1.237 1.523 1.523 0 00.255-.022 1.49 1.49 0 001.214-1.721c-1.012-5.852-6.217-33.614-14.323-36.863z"
        fill="#263239" />
    <path
        d="M208.835 364.146c-3.276 3.6-19.365.731-30.1-6a12.251 12.251 0 01-3.679-3.574c-4.335-7.658 3.516-33.71 3.516-33.71l34.628 12.33v.016s.208 25.918-4.365 30.938z"
        fill="#fff" opacity=".2" />
    <path
        d="M182.856 286.806c-.387-4.588-.775-8.432-1.192-11.649-1.355-10.994-2.681-14.6-2.681-14.6l.834-3.485c4.663 8.905 8.61 20.855 3.039 29.734z"
        opacity=".2" style="isolation:isolate" />
    <path
        d="M246.334 289.743l-9.161 1.825a1.6 1.6 0 01-1.824-1.709v-1.866a1.677 1.677 0 011.267-1.709l8.7-1.863a1.605 1.605 0 01.9.1 1.783 1.783 0 01.9 1.171l.442 1.883a1.732 1.732 0 01-1.224 2.168z"
        fill="#263239" />
    <path
        d="M245.547 288.457l-8.509 1.69a1.487 1.487 0 01-1.69-1.594v-.56a1.677 1.677 0 011.267-1.709l8.7-1.863a1.605 1.605 0 01.9.1c.02.058.038.115.059.173l.421 1.748a1.636 1.636 0 01-1.148 2.015z"
        fill="#fff" opacity=".2" />
    <path
        d="M244.485 286.415c.138.631-.513 1.312-1.457 1.521s-1.822-.135-1.962-.766.513-1.312 1.458-1.52 1.821.138 1.961.765z"
        fill="#fff" opacity=".2" />
    <path
        d="M251.185 277.928a4.517 4.517 0 014.258 4.763m-4.072-8.077a7.836 7.836 0 017.387 8.262m-7.215-11.34a10.92 10.92 0 0110.293 11.51m-9.944.242a1.272 1.272 0 11.1-1.8 1.273 1.273 0 01-.1 1.8z"
        fill="none" stroke="#e20613" stroke-miterlimit="10" />
    <path
        d="M141.645 388.778a303.984 303.984 0 00-5.058 15.758c-7.71 26.357-11.272 57.559-11.272 57.559-21.167 45.207-35.244 112.759-35.244 112.759l8.251 2.559 51.224-120.795 15.079-41.5 11.659-26.338z"
        fill="#f7c0bb" />
    <path
        d="M176.286 388.784l-8.252 18.62-3.412 7.716-15.075 41.5-51.226 120.793-8.249-2.562s14.077-67.555 35.244-112.749c0 0 3.068-27.973 9.7-52.031a321.965 321.965 0 011.579-5.541c1.519-5.2 3.2-10.5 5.05-15.745z"
        opacity=".1" style="isolation:isolate" />
    <path
        d="M176.287 388.784l-8.252 18.62c-7.835.657-21.078 1.743-33.025 2.667a321.965 321.965 0 011.579-5.541c1.519-5.2 3.2-10.5 5.05-15.745z"
        opacity=".2" style="isolation:isolate" />
    <path
        d="M194.834 581.27l-8.044 3.129s-26.323-63.279-37.822-111.86c0 0-11.976-28.272-22.314-53.714q-1.9-4.67-3.694-9.518a230.9 230.9 0 01-7.075-22.21c-2.414-9.341-3.948-18.457-4.023-26.619l32.117 5.944 5.035 19.408 3.872 14.956 2.309 8.893 9.355 43.511z"
        fill="#f7c0bb" />
    <path
        d="M182.533 579.811c-.233-1.06 12.92-3.4 12.92-3.4s9.95 6.156 18.135 6.081 5 5.63-3.653 7.746-15.251 3.733-21.4 5.237-3.584-4.672-6.002-15.664zm-92.94-11.194c.476-.975 12.238 5.36 12.238 5.36s3.973 11 10.432 16.034.418 7.515-7.677 3.8l-20.019-9.192c-5.752-2.641.093-5.89 5.026-16.002z"
        fill="#263239" />
    <path d="M152.885 400.792l-29.926 8.521a230.861 230.861 0 01-7.076-22.21l33.129-1.267z" opacity=".2"
        style="isolation:isolate" />
    <path d="M84.319 382.993s9.471-25.858-7.221-37.3c-15.04-10.309-20.6 29.469-20.6 29.469" fill="none" stroke="#263239"
        stroke-linecap="round" stroke-linejoin="round" />
    <path d="M94.542 383.104l-3.045 71.78-14.655 10.781-55.785-16.539 14.571-77.91 12.824-3.682z" fill="#f7c0bb" />
    <path d="M94.542 383.104l-3.045 71.78-14.655 10.781-55.785-16.539 14.571-77.91 44.892 17.328z" fill="#d90429" />
    <path d="M80.518 388.544l-3.675 77.12-55.786-16.538 14.571-77.91z" fill="#d90429" />
    <path d="M45.428 379.1s11.105-39.027 31.049-35-4.74 43.777-4.74 43.777" fill="none" stroke="#263239"
        stroke-linecap="round" stroke-linejoin="round" />
    <path
        d="M169.925 183.408s-1.575-7.026-16.246-7.026-28.519 17.728-24.984 27.646.589 8.832-9.134 12.25-17.8 12.454-6.483 19.623-22.529 15.066-14.438 28.875 35.092 23.665 58.5 17.283 29.393-24.06 20.067-33.193 2.879-9.769 5.764-15.2-4.483-10.361-2.125-18.355 5.558-27.237-10.921-31.903z"
        fill="#263239" />
    <path
        d="M184.122 255.122c-.015.819-.045 1.7-.074 2.666-.358 10.025-6.33 13.272-11.589 43.75l-37.761-1.326c.223-4.469-4.44-18.65-7.4-28.482-1.058-3.515-1.907-6.479-2.25-8.237a253.903 253.903 0 00-.879-4.514 436.36 436.36 0 00-1.251-6.137 419.325 419.325 0 00-1.967-9.131c2.563-.506 5.154-.938 7.732-1.311q6.277-.893 12.617-1.207a155.031 155.031 0 0121.689.179c4.722.506 9.786 1.341 13.6 2.041v.015c3.694.655 6.241 1.207 6.241 1.207s1.471.536 1.292 10.487z"
        fill="#f7c0bb" />
    <path
        d="M179.698 357.175c.045 4.319-.045 8.937-.268 13.882-.031.492-.045.983-.074 1.49a266.218 266.218 0 01-.463 7.211c-.074.982-.164 2-.253 3.008-.1 1.252-.223 2.518-.358 3.814-.148 1.475-.3 2.994-.492 4.528-.163 1.594-.372 3.2-.58 4.857l-62.221 7.462c-.67-1.936-1.3-3.829-1.862-5.676a105.85 105.85 0 01-1.3-4.364c-.432-1.476-.82-2.92-1.177-4.335-.253-1-.492-1.966-.716-2.934a122.035 122.035 0 01-1.683-8.491 53.856 53.856 0 01-.239-1.475 97.039 97.039 0 01-1.177-17.219c0-.253.015-.492.015-.745 1.087-32.623 24.761-61.809 24.761-61.809l-2.915-17.974a45.444 45.444 0 002.5-9.716c1.251-12.825-2.711-26.247-2.711-26.247l.194-.044c24.564-6.42 47.906 1.013 47.906 1.013v.015c5.884 13.494 9.1 23.336-1.147 56.62a457.918 457.918 0 014.26 56.381c0 .257.015.495 0 .748z"
        fill="#d90429" />
    <path
        d="M157.846 251.479c-11.593-2.855-14.555-8.291-14.555-8.291 5.328-3.979 5.22-10.769 4.469-15.082a24.1 24.1 0 00-1.011-4.014l13.861 4.267a40.968 40.968 0 00-1.229 5.9 17.924 17.924 0 00-.1 4.426c.479 4.343 2.884 4.678 2.884 4.678 1.952 4.935-4.319 8.116-4.319 8.116z"
        fill="#f7c0bb" />
    <path
        d="M159.38 234.259a17.925 17.925 0 00-.1 4.426c-5.539-1.383-9.287-6.369-11.519-10.583a24.1 24.1 0 00-1.011-4.014l13.86 4.268a40.992 40.992 0 00-1.23 5.903z"
        opacity=".2" style="isolation:isolate" />
    <path
        d="M162.208 188.815c12.263 1.865 15.212 9.031 14.189 21.806-1.279 15.964-6.488 26.653-21.308 20.948-20.128-7.748-13.248-45.852 7.119-42.754z"
        fill="#f7c0bb" />
    <path d="M168.574 208.73a26.239 26.239 0 002.794 5.629 3.406 3.406 0 01-3.443.9z" fill="#ec827e" />
    <g fill="#263239">
        <path
            d="M161.22 206.586c-.13 1.011-.782 1.761-1.455 1.673s-1.115-.976-.986-1.987.782-1.761 1.456-1.674 1.119.976.985 1.988z" />
        <path d="M159.949 204.611l2.31-.58s-1.335 1.71-2.31.58z" />
    </g>
    <g fill="#263239">
        <path
            d="M173.815 207.987c-.13 1.011-.781 1.76-1.456 1.674s-1.115-.976-.985-1.988.781-1.761 1.454-1.674 1.118.976.987 1.988z" />
        <path d="M172.542 206.013l2.309-.581s-1.331 1.71-2.309.581z" />
    </g>
    <path d="M162.384 198.099s-3.377-.972-5.6 1.045m14.594-.204a5.789 5.789 0 014.735 1.752" fill="none"
        stroke="#263239" stroke-linecap="round" stroke-linejoin="round" stroke-width=".708" />
    <path
        d="M165.403 219.808a31.316 31.316 0 00-2.079 4.042c-.261-.06-.522-.12-.779-.194-3.514-.9-4.847-2.484-5.257-3.962a4.7 4.7 0 01-.024-2.215 4.5 4.5 0 01.416-1.2c1.577 1.592 4.788 2.688 6.528 3.2.73.224 1.195.329 1.195.329z"
        fill="#263239" />
    <path
        d="M164.209 219.481l-.643 1.175c-3.308-.859-5.522-1.907-6.3-3.178a4.5 4.5 0 01.416-1.2c1.576 1.591 4.788 2.691 6.527 3.203z"
        fill="#fff" />
    <path
        d="M162.546 223.655c-3.514-.9-4.847-2.484-5.257-3.962a11.678 11.678 0 013.7 1.777 4.378 4.378 0 011.557 2.185z"
        fill="#ea5756" />
    <path
        d="M145.661 207.447s7.266-9.2 7.581-17.114c0 0 25.812-6.233 23.26 18.617 0 0 5.706-21.543-15.3-25.237-20.974-3.688-25.608 27.162-16.118 38.008-.002 0-3.928-8.516.577-14.274z"
        fill="#263239" />
    <path
        d="M147.271 210.34a5.444 5.444 0 00-5.044-5.8c-3.863-.163-6.861 7.363 2.306 10.677 1.313.478 2.283-.731 2.738-4.877z"
        fill="#f7c0bb" />
    <path
        d="M156.223 179.885c6.871-1.089 24.659.7 26.751 19.551l-2.608.952a39.612 39.612 0 00-12.869-5.469 30.754 30.754 0 00-2.888-5.328 27.65 27.65 0 01-.537 4.686s-11.779.372-17.506 4.5c-8.986 6.469-10.015 11.1-10.015 11.1s-2.695-26.449 19.672-29.992z"
        fill="#263239" />
    <path
        d="M155.08 181.129s25.133-5.62 29.69 17.889c1.381 7.128-2.03 8.656-1.8 13.048s6.42 6.021 7.3 11.247-8.305 10.587-4 15.273 10.237 5.629 6.952 11.463"
        fill="none" stroke="#263239" stroke-linecap="round" stroke-linejoin="round" stroke-width=".488" />
    <g fill="#d90429">
        <path
            d="M178.704 204.938s-2.414-1.7-7.885-1.3v-.02a5.82 5.82 0 00-4.587-.71 26.028 26.028 0 00-9.639-.73l-10.508 1.019-.285 1.048 10.4.143c.155 2.606 1.325 6.847 4.789 7.067 4.61.291 5.564-4.3 5.813-6.5 1.21-.819 2.992-.5 3.122.416-.152 1.968-.129 6.6 4.5 7.591 4.687 1.004 4.28-8.024 4.28-8.024z" />
        <path
            d="M178.704 204.938s-2.414-1.7-7.885-1.3v-.02a5.82 5.82 0 00-4.587-.71 26.028 26.028 0 00-9.639-.73l-10.508 1.019-.285 1.048 10.4.143c.155 2.606 1.325 6.847 4.789 7.067 4.61.291 5.564-4.3 5.813-6.5 1.21-.819 2.992-.5 3.122.416-.152 1.968-.129 6.6 4.5 7.591 4.687 1.004 4.28-8.024 4.28-8.024z"
            opacity=".2" style="isolation:isolate" />
        <path
            d="M176.907 205.103l-3.851 6.567s2.459 1.643 3.775-.327 1.389-5.881 1.389-5.881a3.914 3.914 0 00-1.313-.359zm-.608-.233l-3.851 6.634s-1.111-.7-1-1.169l3.24-5.684s1.153.141 1.611.219zm-12.055-1.338l-3.85 6.566s2.457 1.643 3.775-.327 1.39-5.882 1.39-5.882a3.906 3.906 0 00-1.315-.357zm-.608-.234l-3.851 6.634s-1.112-.7-1-1.169l3.24-5.684s1.152.141 1.611.219z"
            opacity=".3" />
    </g>
    <path
        d="M178.282 386.576c-.148 1.475-.3 2.995-.492 4.528l-64.663 6.644a105.85 105.85 0 01-1.3-4.364zm.611-6.818c-.074.982-.164 2-.253 3.008l-67.985 6.286c-.253-1-.492-1.965-.716-2.934zm.537-8.702c-.031.491-.045.983-.074 1.489l-71.1 5.08a53.24 53.24 0 01-.239-1.475zm.268-14.626c0 .254.015.492 0 .745l-72.857 1.757c0-.253.015-.492.015-.745z"
        fill="#fff" opacity=".4" />
    <path
        d="M129.96 265.251a8.078 8.078 0 01-2.666 6.479c-1.058-3.515-1.907-6.479-2.25-8.237a253.903 253.903 0 00-.879-4.514 40.474 40.474 0 013.977.149 14 14 0 011.818 6.123z"
        opacity=".2" style="isolation:isolate" />
    <path
        d="M120.952 243.705c-9.052 2.807-14.7 44.292-17.547 52.422-2.13 6.092-22.672 44.307-22.672 44.307s-18.874 5.259-17.106 8.206 6.776 7.661 9.723 8.25 12.081-6.776 12.964-8.839a18.139 18.139 0 00.885-5.644s21.919-33.057 24.661-40.016c2.071-5.254 15.656-40.328 15.656-40.328s2.652-4.144 0-10.584-6.564-7.774-6.564-7.774zm424.797 342.441l11.2-.176 3.231-25.978-11.2.176zm53.484-.82l10.883-3.336-6.752-24.617-10.878 3.334z"
        fill="#f7c0bb" />
    <path
        d="M609.78 578.73l-12.133 6.262a.977.977 0 00-.5 1.117l2.6 9.861a1.647 1.647 0 002.371 1.017c3.868-2.082 6.6-3.78 11.516-6.318 3.025-1.561 12.309-5.955 16.486-8.11 4.086-2.109 2.591-6.568.688-6.059-8.534 2.28-15.506 2.948-19.1 2.008a2.713 2.713 0 00-1.928.222zm-52.601 5.945l-12.229.192a.977.977 0 00-.941.779l-2.056 9.989a1.63 1.63 0 001.643 1.966c4.41-.144 10.78-.5 16.325-.59 6.483-.1 8.363.164 15.966.045 4.6-.072 5.8-4.739 3.87-5.13-8.79-1.779-12.222-1.872-19.865-6.421a5.181 5.181 0 00-2.713-.83z"
        fill="#263239" />
    <path
        d="M574.189 245.343c2.539 5.1 5.408 10.5 8.289 15.632 2.912 5.164 5.924 10.258 9.175 15.074.833 1.176 1.613 2.42 2.471 3.561l2.083 2.853a11.564 11.564 0 01.742.957c.061.123.115.3.652.341 1.065.076 3.3-1.042 5.3-2.6a48.884 48.884 0 003.08-2.61c1-.924 2.033-2.04 2.917-2.926l7.326 4.127a37.891 37.891 0 01-2.2 4.775 33.115 33.115 0 01-2.849 4.482 26.916 26.916 0 01-3.9 4.235 18.064 18.064 0 01-5.88 3.511 14.62 14.62 0 01-8.466.462 16.8 16.8 0 01-7.09-3.788 17.022 17.022 0 01-1.269-1.2l-.6-.614-.427-.482-1.629-1.867c-1.1-1.242-2.095-2.523-3.137-3.794a162.683 162.683 0 01-10.949-15.952c-1.635-2.75-3.254-5.505-4.726-8.34-1.5-2.858-2.933-5.592-4.314-8.7z"
        fill="#f7c0bb" />
    <g fill="#ef233c">
        <path
            d="M554.102 245.41c-3.02 10.272 18.238 38.279 18.238 38.279l21.434-13.793s-6.3-14.289-14.853-25.185c-8.783-11.188-21.506-10.575-24.819.699z" />
        <path
            d="M554.102 245.41c-3.02 10.272 18.238 38.279 18.238 38.279l21.434-13.793s-6.3-14.289-14.853-25.185c-8.783-11.188-21.506-10.575-24.819.699z"
            opacity=".2" />
    </g>
    <path
        d="M567.167 257.47c4.409 1.884 10.9 12.5 14.272 20.37l-9.1 5.846a171.313 171.313 0 01-13.673-21.43c2.878-3.157 6.171-5.776 8.501-4.786z"
        opacity=".2" />
    <path d="M607.629 277.646l7.759-12.545 6.759 10.808s-2.48 4.738-7.468 6.1z" fill="#cd5b51" />
    <path
        d="M626.196 265.231l-.027 3.88a5.312 5.312 0 01-1.19 3.313l-2.832 3.482-6.759-10.808 6.99-2.556a2.842 2.842 0 013.818 2.689z"
        fill="#f7c0bb" />
    <path d="M618.636 281.263l-12.21-.187 6.756-25.29 12.21.187z" fill="#063" />
    <path d="M619.873 281.263l-12.21-.187 6.756-25.29 12.21.187z" fill="#263239" />
    <path d="M560.178 560l-1.663 13.391-11.207.176 1.663-13.391zm32.304.714l10.887-3.337 3.475 12.692-10.887 3.336z"
        fill="#f7c0bb" />
    <g fill="#ef233c">
        <path
            d="M506.746 250.843c9.14 39.384 7.15 78.43 8.154 86.855 8.76-.636 41.754-3.1 59.738-4.438 5.728-64-7.847-96.492-7.847-96.492s-3.841-.746-9.064-1.282a106.572 106.572 0 00-5.245-.412 79.75 79.75 0 00-3.1-.114c-6.758-.11-17.795.963-25.4 1.893-1.592.2-3.214.437-4.78.693-1.455.248-2.882.512-4.226.781l-.183.036a10.362 10.362 0 00-8.047 12.48z" />
        <path
            d="M506.746 250.843c9.14 39.384 7.15 78.43 8.154 86.855 8.76-.636 41.754-3.1 59.738-4.438 5.728-64-7.847-96.492-7.847-96.492s-3.841-.746-9.064-1.282a106.572 106.572 0 00-5.245-.412 79.75 79.75 0 00-3.1-.114c-6.758-.11-17.795.963-25.4 1.893-1.592.2-3.214.437-4.78.693-1.455.248-2.882.512-4.226.781l-.183.036a10.362 10.362 0 00-8.047 12.48z"
            opacity=".2" />
    </g>
    <path
        d="M516.934 259.123l-6.852 8.818a1.893 1.893 0 01.038.324c.954 5.973 1.7 11.833 2.252 17.464 6.546-8.111 5.575-22.75 4.562-26.606z"
        opacity=".2" />
    <path
        d="M526.963 219.377c1.429 6.016 1.343 12.7-2.97 17.471 4.769 4.084 10.953 8.752 20.681 8.371s7.536-6.927 4.712-10.259c-8.311-1.342-8.324-6.739-8.389-12.668a2.874 2.874 0 00-1.994-2.7l-9.125-2.928a2.283 2.283 0 00-2.915 2.713z"
        fill="#f7c0bb" />
    <path
        d="M541.002 222.629l-9.181 1.183c.21.4.458.8.706 1.183 1.737 2.787 5.611 4.619 9.543 5.287-.991-2.156-1.029-4.847-1.068-7.653z"
        opacity=".2" />
    <path
        d="M552.915 198.759c5.109.863 14.652-4.943 12.426-12.657-2.862 3.579-12.426 2.386-12.426 2.386zm-19.928 8.263c.557 5.152-5.806 14.333-13.374 11.652 3.743-2.646 3.121-12.263 3.121-12.263z"
        fill="#263239" />
    <path
        d="M525.508 196.961c-1.371 11.03-2.735 17.416 1.725 24.043 6.708 9.97 21.1 7.495 25.742-2.9 4.175-9.359 5.717-25.824-4.145-32.162a15.159 15.159 0 00-23.322 11.019z"
        fill="#f7c0bb" />
    <path
        d="M523.992 208.051c2.694 2.837 10.094-8.748 8.742-12.883 2.783 1.208 8.129-1.113 7.794-5.726 8.336 4.453 20.4 7.985 20.6-.079s-7.425-14-14.886-14.633c.889 2.386-1.466 3.419-6.3 2.386s-23.522-9.6-21.453 7.555c-6.941.46-7.863 9.304 5.503 23.38z"
        fill="#263239" />
    <path
        d="M518.534 203.852a10.57 10.57 0 004.09 6.956c2.974 2.21 4.818-.133 5.1-3.631.254-3.15-.023-8.091-3.54-8.921-3.465-.819-6.094 2.198-5.65 5.596z"
        fill="#f7c0bb" />
    <path
        d="M535.367 336.183l39.27-2.919s5.073 80.587 4.692 114.765c-.393 35.538-16.65 122.708-16.65 122.708l-18.96.289s1.494-84.547 1.494-119.445c0-47-9.847-115.4-9.847-115.4"
        fill="#263239" />
    <path d="M550.545 419.945c.516 2.328 15.117 67.661 19.831 105.815 2.519-15.861 5.1-33.649 6.832-49.357z"
        opacity=".2" />
    <path
        d="M553.449 334.84s29.878 73.231 36.624 105.344c7.39 35.166 19.194 124.1 19.194 124.1l-20.266 3.17s-15.361-66.489-23.941-100.458c-9.773-38.7-48.47-100-50.158-129.289z"
        fill="#263239" />
    <path
        d="M611.821 566.019l-25.2 5.9-3.172-9.7 27.5-4.719zm-46.753 5.122l-22.6.354-.115-7.3 25.252-.78zm-24.196-368.43c-.167.888.169 1.7.75 1.8s1.186-.523 1.351-1.411-.169-1.7-.75-1.8-1.185.526-1.351 1.411zm10.991 2.326c-.166.888.17 1.7.75 1.8s1.186-.523 1.352-1.411-.169-1.7-.75-1.8-1.185.528-1.352 1.411z"
        fill="#263239" />
    <path d="M548.24 204.825s1.06 5.5 2.82 8.388c-1.845 1.172-4.391 0-4.391 0z" fill="#ec827e" />
    <path
        d="M544.786 215.944a7.44 7.44 0 01-4.818-3.4.265.265 0 01.468-.249 7.17 7.17 0 005.561 3.307.266.266 0 01-.048.529 8.85 8.85 0 01-1.163-.187zm-5.009-17.213a.531.531 0 01-.19-.9 5.262 5.262 0 014.648-1.357.531.531 0 01-.265 1.027 4.2 4.2 0 00-3.669 1.115.53.53 0 01-.524.115zm18.005 3.55a.531.531 0 01-.346-.364 4.2 4.2 0 00-2.5-2.907.531.531 0 01.327-1.01 5.271 5.271 0 013.2 3.637.531.531 0 01-.678.644z"
        fill="#263239" />
    <path
        d="M524.663 254.294c-3.7 6.59-7.418 13.622-10.756 20.539a158.775 158.775 0 00-8.642 20.943c-.273.865-.481 1.715-.729 2.575-.105.391-.273.944-.328 1.2-.031.22-.122.416-.15.657a10.617 10.617 0 00.107 3.5 32.157 32.157 0 003.617 9.036 112.419 112.419 0 0013.39 18.162l-5.374 6.466a81.158 81.158 0 01-18.893-17.36 41.4 41.4 0 01-6.817-12.537 24.168 24.168 0 01-1.165-8.407c.023-.76.144-1.551.235-2.325.1-.733.213-1.146.321-1.735.224-1.089.422-2.206.675-3.275a139.694 139.694 0 018.422-24.008 206.41 206.41 0 0111.5-22.124z"
        fill="#f7c0bb" />
    <g fill="#ef233c">
        <path
            d="M513.003 239.107c-10.327 2.828-20.471 31.868-20.471 31.868l24.867 6.9s5.481-6.937 10.351-19.891c5.308-14.111-2.237-22.302-14.747-18.877z" />
        <path
            d="M513.003 239.107c-10.327 2.828-20.471 31.868-20.471 31.868l24.867 6.9s5.481-6.937 10.351-19.891c5.308-14.111-2.237-22.302-14.747-18.877z"
            opacity=".2" />
    </g>
    <path
        d="M516.407 329.002l11.348 2.987-4.506 10.677s-10.193-2.16-10.123-7.715zm15.71 10.232l-3.351 8.435-5.516-5 4.505-10.677z"
        fill="#f7c0bb" />
    <g>
        <path
            d="M690.853 447.078a10.671 10.671 0 016.373 5.4 18.837 18.837 0 011.948 8.289c.176 5.538-2.119 11.487-4.819 16.325-5.169-3.336-7.242-10.165-8.075-13.7-1.318-5.581-.309-16.468 4.573-16.317"
            fill="#d90429" />
    </g>
    <g>
        <path
            d="M700.997 485.307a9.1 9.1 0 011.664-8.986 12.088 12.088 0 018.42-4.04 5.091 5.091 0 014.125 1.175 3.893 3.893 0 01.628 3.895 7.885 7.885 0 01-2.476 3.267c-3.612 3.073-7.671 5.383-12.362 4.688"
            fill="#d90429" />
    </g>
    <g>
        <path
            d="M697.545 502.868a6.323 6.323 0 010-1.142l.114-3.106a31.944 31.944 0 011.716-10.12 19.557 19.557 0 015.863-8.38 13.212 13.212 0 012.646-1.663 7.76 7.76 0 01.783-.325.845.845 0 01.285-.084 20.8 20.8 0 00-3.535 2.291 20.177 20.177 0 00-5.667 8.3 34.4 34.4 0 00-1.808 9.993 127.401 127.401 0 01-.242 3.1 6.121 6.121 0 01-.155 1.136z"
            fill="#263239" />
    </g>
    <g>
        <path
            d="M690.818 455.436a2.3 2.3 0 01.127.48l.287 1.392c.243 1.211.572 2.966.96 5.138.776 4.345 1.765 10.362 2.707 17.03s1.655 12.727 2.111 17.117c.229 2.2.4 3.973.5 5.2l.109 1.417a.249.249 0 11-.08.008 708.16 708.16 0 01-.184-1.409l-.627-5.186c-.528-4.38-1.287-10.427-2.227-17.093s-1.885-12.684-2.59-17.038c-.346-2.141-.628-3.891-.834-5.158l-.213-1.405a2.25 2.25 0 01-.046-.493z"
            fill="#263239" />
    </g>
    <g>
        <path
            d="M693.542 489.78a21.29 21.29 0 00-13.75-13.758c-1.64-.511-3.712-.7-4.806.623s-.515 3.334.334 4.831a18.188 18.188 0 0018.179 8.767"
            fill="#d90429" />
    </g>
    <g>
        <path
            d="M681.286 481.08a5.424 5.424 0 011.035.283 10.329 10.329 0 011.185.426c.45.2.984.376 1.528.675a18.662 18.662 0 011.778.973 21.042 21.042 0 011.931 1.3 23.651 23.651 0 013.845 3.691 23.153 23.153 0 012.837 4.515 20 20 0 01.865 2.162 17.04 17.04 0 01.565 1.947 15.821 15.821 0 01.317 1.64 9.53 9.53 0 01.145 1.252 5.464 5.464 0 01.035 1.072c-.09.01-.154-1.525-.772-3.9a18.2 18.2 0 00-.6-1.905 20.979 20.979 0 00-.885-2.115 24.155 24.155 0 00-2.813-4.42 24.661 24.661 0 00-3.76-3.651 22.063 22.063 0 00-1.881-1.311c-.6-.4-1.193-.709-1.73-1-2.181-1.123-3.654-1.551-3.625-1.634z"
            fill="#263239" />
    </g>
</svg>